<?xml version="1.0" encoding="UTF-8"?>
<svg width="88px" height="15px" viewBox="0 0 88 15" version="1.1" xmlns="http://www.w3.org/2000/svg" xmlns:xlink="http://www.w3.org/1999/xlink">
    <!-- Generator: Sketch 43.1 (39012) - http://www.bohemiancoding.com/sketch -->
    <title>5 stars</title>
    <desc>Created with Sketch.</desc>
    <defs></defs>
    <g id="Website" stroke="none" stroke-width="1" fill="none" fill-rule="evenodd">
        <g id="AL-Website-Desktop-v4-17-04-13" transform="translate(-109.000000, -2381.000000)" fill="#FFC106">
            <g id="Group-16" transform="translate(42.000000, 1698.000000)">
                <g id="Group" transform="translate(0.000000, 501.000000)">
                    <g id="5-stars" transform="translate(0.000000, 83.000000)">
                        <g transform="translate(67.000000, 99.000000)" id="Group-4">
                            <g>
                                <polygon id="Star" points="8 12 3.29771798 14.472136 4.19577393 9.23606798 0.39154787 5.52786405 5.64885899 4.76393202 8 0 10.351141 4.76393202 15.6084521 5.52786405 11.8042261 9.23606798 12.702282 14.472136"></polygon>
                                <polygon id="Star-Copy" points="26 12 21.297718 14.472136 22.1957739 9.23606798 18.3915479 5.52786405 23.648859 4.76393202 26 0 28.351141 4.76393202 33.6084521 5.52786405 29.8042261 9.23606798 30.702282 14.472136"></polygon>
                                <polygon id="Star-Copy-2" points="44 12 39.297718 14.472136 40.1957739 9.23606798 36.3915479 5.52786405 41.648859 4.76393202 44 0 46.351141 4.76393202 51.6084521 5.52786405 47.8042261 9.23606798 48.702282 14.472136"></polygon>
                                <polygon id="Star-Copy-3" points="62 12 57.297718 14.472136 58.1957739 9.23606798 54.3915479 5.52786405 59.648859 4.76393202 62 0 64.351141 4.76393202 69.6084521 5.52786405 65.8042261 9.23606798 66.702282 14.472136"></polygon>
                                <polygon id="Star-Copy-4" points="80 12 75.297718 14.472136 76.1957739 9.23606798 72.3915479 5.52786405 77.648859 4.76393202 80 0 82.351141 4.76393202 87.6084521 5.52786405 83.8042261 9.23606798 84.702282 14.472136"></polygon>
                            </g>
                        </g>
                    </g>
                </g>
            </g>
        </g>
    </g>
</svg>