<?xml version="1.0" encoding="UTF-8"?>
<svg width="307px" height="56px" viewBox="0 0 307 56" version="1.1" xmlns="http://www.w3.org/2000/svg" xmlns:xlink="http://www.w3.org/1999/xlink">
    <!-- Generator: Sketch 43.1 (39012) - http://www.bohemiancoding.com/sketch -->
    <title>apex-launcher</title>
    <desc>Created with Sketch.</desc>
    <defs></defs>
    <g id="Website" stroke="none" stroke-width="1" fill="none" fill-rule="evenodd">
        <g id="AL-Website-Desktop-v4-17-04-13" transform="translate(-77.000000, -50.000000)" fill="#FFFFFF">
            <g id="apex-launcher" transform="translate(77.000000, 50.000000)">
                <g id="Group-10-Copy-2" transform="translate(81.000000, 15.000000)">
                    <path d="M15.9873047,20.3720703 L6.62402344,20.3720703 L4.66503906,26 L0.298828125,26 L9.4296875,1.828125 L13.1982422,1.828125 L22.3457031,26 L17.9628906,26 L15.9873047,20.3720703 Z M7.80273438,16.9853516 L14.8085938,16.9853516 L11.3056641,6.95800781 L7.80273438,16.9853516 Z M40.6279297,17.2011719 C40.6279297,18.507168 40.4757502,19.7190699 40.1713867,20.8369141 C39.8670232,21.9547582 39.4187855,22.9204061 38.8266602,23.7338867 C38.2345348,24.5473673 37.5040734,25.1837542 36.6352539,25.6430664 C35.7664345,26.1023786 34.7731176,26.3320312 33.6552734,26.3320312 C32.6259714,26.3320312 31.7239622,26.1660173 30.9492188,25.8339844 C30.1744753,25.5019515 29.4993518,25.020511 28.9238281,24.3896484 L28.9238281,32.90625 L24.8896484,32.90625 L24.8896484,8.03710938 L28.6083984,8.03710938 L28.7744141,9.86328125 C29.3499378,9.16601214 30.0333619,8.63200055 30.824707,8.26123047 C31.6160521,7.89046039 32.5429634,7.70507812 33.6054688,7.70507812 C34.7454484,7.70507812 35.7525998,7.92643008 36.6269531,8.36914062 C37.5013065,8.81185117 38.2345348,9.43440354 38.8266602,10.2368164 C39.4187855,11.0392293 39.8670232,12.0021103 40.1713867,13.1254883 C40.4757502,14.2488663 40.6279297,15.4912041 40.6279297,16.8525391 L40.6279297,17.2011719 Z M36.6103516,16.8525391 C36.6103516,16.0445923 36.5301115,15.2864619 36.3696289,14.578125 C36.2091463,13.8697881 35.9628923,13.2500027 35.6308594,12.71875 C35.2988265,12.1874973 34.872724,11.7696955 34.3525391,11.465332 C33.8323542,11.1609685 33.2070349,11.0087891 32.4765625,11.0087891 C31.5911414,11.0087891 30.86068,11.1914044 30.2851562,11.5566406 C29.7096325,11.9218768 29.255861,12.4199187 28.9238281,13.0507812 L28.9238281,21.0195312 C29.255861,21.6503938 29.7068656,22.1567364 30.2768555,22.5385742 C30.8468453,22.9204121 31.5911412,23.1113281 32.5097656,23.1113281 C33.240238,23.1113281 33.8627904,22.9536149 34.3774414,22.6381836 C34.8920924,22.3227523 35.315428,21.8966498 35.6474609,21.3598633 C35.9794938,20.8230767 36.222981,20.1949906 36.3779297,19.4755859 C36.5328784,18.7561813 36.6103516,17.9980509 36.6103516,17.2011719 L36.6103516,16.8525391 Z M51.9501953,26.3320312 C50.6220637,26.3320312 49.4267631,26.1106793 48.3642578,25.6679688 C47.3017525,25.2252582 46.3997433,24.6165403 45.6582031,23.8417969 C44.916663,23.0670534 44.3466817,22.1484428 43.9482422,21.0859375 C43.5498027,20.0234322 43.3505859,18.8779358 43.3505859,17.6494141 L43.3505859,16.9853516 C43.3505859,15.5686778 43.5608703,14.2876034 43.9814453,13.1420898 C44.4020203,11.9965763 44.9775354,11.0226277 45.7080078,10.2202148 C46.4384802,9.41780198 47.2989859,8.79801651 48.2895508,8.36083984 C49.2801156,7.92366318 50.3453719,7.70507812 51.4853516,7.70507812 C52.7913477,7.70507812 53.9257764,7.92366318 54.8886719,8.36083984 C55.8515673,8.79801651 56.6484343,9.40950128 57.2792969,10.1953125 C57.9101594,10.9811237 58.3805323,11.9163357 58.6904297,13.0009766 C59.0003271,14.0856174 59.1552734,15.2753842 59.1552734,16.5703125 L59.1552734,18.296875 L47.4179688,18.296875 C47.4733076,18.9941441 47.6199532,19.6360648 47.8579102,20.2226562 C48.0958671,20.8092477 48.4195943,21.3155903 48.8291016,21.7416992 C49.2386088,22.1678081 49.7228162,22.5026029 50.2817383,22.7460938 C50.8406603,22.9895846 51.4742803,23.1113281 52.1826172,23.1113281 C53.1787159,23.1113281 54.0447554,22.9121114 54.7807617,22.5136719 C55.516768,22.1152324 56.1559218,21.5673863 56.6982422,20.8701172 L58.8730469,22.9453125 C58.585285,23.3769553 58.228355,23.7947571 57.8022461,24.1987305 C57.3761372,24.6027038 56.8780953,24.9624008 56.3081055,25.277832 C55.7381156,25.5932633 55.0934281,25.847818 54.3740234,26.0415039 C53.6546188,26.2351898 52.8466842,26.3320312 51.9501953,26.3320312 Z M51.46875,10.9423828 C50.3619736,10.9423828 49.4682651,11.3297487 48.7875977,12.1044922 C48.1069302,12.8792356 47.672527,13.9583264 47.484375,15.3417969 L55.1708984,15.3417969 L55.1708984,15.0429688 C55.1376951,14.5117161 55.0519213,13.9998397 54.9135742,13.5073242 C54.7752272,13.0148087 54.5621759,12.5776386 54.2744141,12.1958008 C53.9866522,11.8139629 53.6131208,11.509604 53.1538086,11.2827148 C52.6944964,11.0558257 52.1328158,10.9423828 51.46875,10.9423828 Z M68.734375,13.9472656 L72.1542969,8.03710938 L76.6367188,8.03710938 L71.1416016,16.8857422 L76.8193359,26 L72.3701172,26 L68.7841797,19.8574219 L65.2148438,26 L60.7324219,26 L66.4101562,16.8857422 L60.9316406,8.03710938 L65.3808594,8.03710938 L68.734375,13.9472656 Z M91.4414062,22.6464844 L102.415039,22.6464844 L102.415039,26 L87.2412109,26 L87.2412109,1.828125 L91.4414062,1.828125 L91.4414062,22.6464844 Z M115.978516,26 C115.867838,25.7897125 115.77653,25.5406915 115.70459,25.2529297 C115.632649,24.9651678 115.569011,24.6552751 115.513672,24.3232422 C115.248046,24.5999363 114.951987,24.8600248 114.625488,25.1035156 C114.298989,25.3470064 113.939292,25.5600577 113.546387,25.7426758 C113.153481,25.9252939 112.727379,26.0691727 112.268066,26.1743164 C111.808754,26.2794602 111.319013,26.3320312 110.798828,26.3320312 C109.902339,26.3320312 109.077803,26.1964532 108.325195,25.925293 C107.572587,25.6541328 106.9279,25.2778344 106.391113,24.7963867 C105.854327,24.314939 105.433758,23.7477246 105.129395,23.0947266 C104.825031,22.4417285 104.672852,21.7334023 104.672852,20.9697266 C104.672852,20.0068311 104.855467,19.1546261 105.220703,18.4130859 C105.585939,17.6715458 106.117184,17.0517603 106.814453,16.5537109 C107.511722,16.0556616 108.366694,15.6765964 109.379395,15.4165039 C110.392095,15.1564115 111.545892,15.0263672 112.84082,15.0263672 L115.380859,15.0263672 L115.380859,13.8476563 C115.380859,12.9179641 115.120771,12.1736682 114.600586,11.6147461 C114.080401,11.055824 113.289068,10.7763672 112.226562,10.7763672 C111.750649,10.7763672 111.319012,10.8400059 110.931641,10.9672852 C110.544269,11.0945644 110.215008,11.2661122 109.943848,11.4819336 C109.672687,11.697755 109.462403,11.9550766 109.312988,12.2539062 C109.163573,12.5527359 109.088867,12.8736962 109.088867,13.2167969 L105.054688,13.2167969 C105.054688,12.50846 105.229002,11.8250358 105.577637,11.1665039 C105.926271,10.507972 106.421546,9.92138929 107.063477,9.40673828 C107.705407,8.89208727 108.482906,8.47981926 109.395996,8.16992187 C110.309087,7.86002449 111.330072,7.70507812 112.458984,7.70507812 C113.466151,7.70507812 114.395829,7.8351224 115.248047,8.09521484 C116.100265,8.35530729 116.83626,8.74267321 117.456055,9.25732422 C118.075849,9.77197523 118.55729,10.4138959 118.900391,11.1831055 C119.243491,11.952315 119.415039,12.8515574 119.415039,13.8808594 L119.415039,21.8496094 C119.415039,23.4655029 119.641925,24.754878 120.095703,25.7177734 L120.095703,26 L115.978516,26 Z M111.545898,23.0947266 C112.010745,23.0947266 112.445148,23.0338548 112.849121,22.9121094 C113.253094,22.790364 113.618325,22.6298838 113.944824,22.4306641 C114.271323,22.2314443 114.556314,22.0017917 114.799805,21.7416992 C115.043295,21.4816068 115.236978,21.2187513 115.380859,20.953125 L115.380859,17.5664062 L113.206055,17.5664062 C111.711907,17.5664062 110.588545,17.8264948 109.835938,18.3466797 C109.08333,18.8668646 108.707031,19.6028598 108.707031,20.5546875 C108.707031,20.9199237 108.767903,21.2574854 108.889648,21.5673828 C109.011394,21.8772802 109.194009,22.1456694 109.4375,22.3725586 C109.680991,22.5994477 109.977049,22.7765293 110.325684,22.9038086 C110.674318,23.0310879 111.081052,23.0947266 111.545898,23.0947266 Z M134.522461,24.2402344 C133.958005,24.9043002 133.260746,25.4189435 132.430664,25.7841797 C131.600582,26.1494159 130.615566,26.3320312 129.475586,26.3320312 C128.590165,26.3320312 127.784997,26.2075208 127.060059,25.9584961 C126.33512,25.7094714 125.712568,25.3165717 125.192383,24.7797852 C124.672198,24.2429986 124.268231,23.5512738 123.980469,22.7045898 C123.692707,21.8579059 123.548828,20.8424538 123.548828,19.6582031 L123.548828,8.03710938 L127.583008,8.03710938 L127.583008,19.6914062 C127.583008,20.3444043 127.660481,20.8839497 127.81543,21.3100586 C127.970378,21.7361675 128.177896,22.079263 128.437988,22.3393555 C128.698081,22.5994479 128.999673,22.7820633 129.342773,22.887207 C129.685874,22.9923508 130.045571,23.0449219 130.421875,23.0449219 C131.462245,23.0449219 132.303382,22.8567727 132.945312,22.4804688 C133.587243,22.1041648 134.068683,21.5895215 134.389648,20.9365234 L134.389648,8.03710938 L138.423828,8.03710938 L138.423828,26 L134.62207,26 L134.522461,24.2402344 Z M146.276367,8.03710938 L146.392578,10.1123047 C147.023441,9.34862899 147.781571,8.75651252 148.666992,8.3359375 C149.552413,7.91536248 150.537429,7.70507812 151.62207,7.70507812 C152.485356,7.70507812 153.268388,7.8240548 153.971191,8.06201172 C154.673994,8.29996864 155.274412,8.68456766 155.772461,9.21582031 C156.27051,9.74707297 156.655109,10.4387978 156.92627,11.2910156 C157.19743,12.1432334 157.333008,13.1780538 157.333008,14.3955078 L157.333008,26 L153.298828,26 L153.298828,14.3623047 C153.298828,13.7425099 153.229656,13.2195659 153.091309,12.793457 C152.952962,12.3673481 152.750978,12.0214857 152.485352,11.7558594 C152.219725,11.490233 151.890464,11.299317 151.497559,11.1831055 C151.104653,11.066894 150.653648,11.0087891 150.144531,11.0087891 C149.314449,11.0087891 148.592288,11.2080058 147.978027,11.6064453 C147.363766,12.0048848 146.874025,12.5416633 146.508789,13.2167969 L146.508789,26 L142.474609,26 L142.474609,8.03710938 L146.276367,8.03710938 Z M168.821289,23.1113281 C169.308271,23.1113281 169.764809,23.0366218 170.190918,22.887207 C170.617027,22.7377922 170.987791,22.5275079 171.303223,22.2563477 C171.618654,21.9851874 171.873209,21.6614602 172.066895,21.2851562 C172.26058,20.9088523 172.368489,20.4993512 172.390625,20.0566406 L176.192383,20.0566406 C176.15918,20.9199262 175.946128,21.7333946 175.553223,22.4970703 C175.160317,23.260746 174.634606,23.9275688 173.976074,24.4975586 C173.317542,25.0675484 172.551111,25.5157861 171.676758,25.8422852 C170.802404,26.1687842 169.867192,26.3320312 168.871094,26.3320312 C167.487623,26.3320312 166.284022,26.0940779 165.260254,25.6181641 C164.236486,25.1422502 163.384281,24.4947958 162.703613,23.6757813 C162.022946,22.8567667 161.516603,21.8994195 161.18457,20.8037109 C160.852537,19.7080023 160.686523,18.5459046 160.686523,17.3173828 L160.686523,16.7363281 C160.686523,15.5078064 160.852537,14.3457086 161.18457,13.25 C161.516603,12.1542914 162.022946,11.1941773 162.703613,10.3696289 C163.384281,9.54508051 164.233719,8.89485915 165.251953,8.41894531 C166.270187,7.94303147 167.471022,7.70507812 168.854492,7.70507812 C169.939133,7.70507812 170.926916,7.87109209 171.817871,8.203125 C172.708826,8.53515791 173.47249,8.99999701 174.108887,9.59765625 C174.745283,10.1953155 175.243325,10.9091755 175.603027,11.7392578 C175.96273,12.5693401 176.15918,13.4824169 176.192383,14.4785156 L172.390625,14.4785156 C172.368489,14.0026018 172.271648,13.5488303 172.100098,13.1171875 C171.928547,12.6855447 171.690594,12.3092464 171.38623,11.9882812 C171.081867,11.6673161 170.713869,11.4127614 170.282227,11.2246094 C169.850584,11.0364574 169.363609,10.9423828 168.821289,10.9423828 C168.002275,10.9423828 167.327151,11.1111637 166.795898,11.4487305 C166.264646,11.7862973 165.844077,12.2262343 165.53418,12.7685547 C165.224282,13.3108751 165.011231,13.9306606 164.89502,14.6279297 C164.778808,15.3251988 164.720703,16.0279912 164.720703,16.7363281 L164.720703,17.3173828 C164.720703,18.0478552 164.778808,18.7589484 164.89502,19.4506836 C165.011231,20.1424188 165.224282,20.7594374 165.53418,21.3017578 C165.844077,21.8440782 166.261879,22.2812483 166.787598,22.6132812 C167.313316,22.9453142 167.991207,23.1113281 168.821289,23.1113281 Z M183.214844,9.99609375 C183.834639,9.27668911 184.5651,8.71500853 185.40625,8.31103516 C186.2474,7.90706178 187.182612,7.70507812 188.211914,7.70507812 C189.086267,7.70507812 189.883134,7.8268217 190.602539,8.0703125 C191.321944,8.3138033 191.936195,8.70393612 192.445312,9.24072266 C192.95443,9.77750919 193.347329,10.4747678 193.624023,11.3325195 C193.900718,12.1902712 194.039062,13.2278585 194.039062,14.4453125 L194.039062,26 L190.004883,26 L190.004883,14.4121094 C190.004883,13.1725198 189.736494,12.2954127 189.199707,11.7807617 C188.66292,11.2661107 187.874354,11.0087891 186.833984,11.0087891 C185.992834,11.0087891 185.270674,11.202472 184.66748,11.5898438 C184.064287,11.9772155 183.58008,12.5029264 183.214844,13.1669922 L183.214844,26 L179.180664,26 L179.180664,0.5 L183.214844,0.5 L183.214844,9.99609375 Z M206.025391,26.3320312 C204.697259,26.3320312 203.501958,26.1106793 202.439453,25.6679688 C201.376948,25.2252582 200.474939,24.6165403 199.733398,23.8417969 C198.991858,23.0670534 198.421877,22.1484428 198.023438,21.0859375 C197.624998,20.0234322 197.425781,18.8779358 197.425781,17.6494141 L197.425781,16.9853516 C197.425781,15.5686778 197.636066,14.2876034 198.056641,13.1420898 C198.477216,11.9965763 199.052731,11.0226277 199.783203,10.2202148 C200.513676,9.41780198 201.374181,8.79801651 202.364746,8.36083984 C203.355311,7.92366318 204.420567,7.70507812 205.560547,7.70507812 C206.866543,7.70507812 208.000972,7.92366318 208.963867,8.36083984 C209.926763,8.79801651 210.72363,9.40950128 211.354492,10.1953125 C211.985355,10.9811237 212.455728,11.9163357 212.765625,13.0009766 C213.075522,14.0856174 213.230469,15.2753842 213.230469,16.5703125 L213.230469,18.296875 L201.493164,18.296875 C201.548503,18.9941441 201.695149,19.6360648 201.933105,20.2226562 C202.171062,20.8092477 202.49479,21.3155903 202.904297,21.7416992 C203.313804,22.1678081 203.798012,22.5026029 204.356934,22.7460938 C204.915856,22.9895846 205.549476,23.1113281 206.257812,23.1113281 C207.253911,23.1113281 208.119951,22.9121114 208.855957,22.5136719 C209.591963,22.1152324 210.231117,21.5673863 210.773438,20.8701172 L212.948242,22.9453125 C212.66048,23.3769553 212.30355,23.7947571 211.877441,24.1987305 C211.451333,24.6027038 210.953291,24.9624008 210.383301,25.277832 C209.813311,25.5932633 209.168623,25.847818 208.449219,26.0415039 C207.729814,26.2351898 206.921879,26.3320312 206.025391,26.3320312 Z M205.543945,10.9423828 C204.437169,10.9423828 203.54346,11.3297487 202.862793,12.1044922 C202.182126,12.8792356 201.747722,13.9583264 201.55957,15.3417969 L209.246094,15.3417969 L209.246094,15.0429688 C209.21289,14.5117161 209.127117,13.9998397 208.98877,13.5073242 C208.850422,13.0148087 208.637371,12.5776386 208.349609,12.1958008 C208.061848,11.8139629 207.688316,11.509604 207.229004,11.2827148 C206.769692,11.0558257 206.208011,10.9423828 205.543945,10.9423828 Z M225.764648,11.7226562 C225.499022,11.6783852 225.230633,11.6451824 224.959473,11.6230469 C224.688312,11.6009113 224.408856,11.5898438 224.121094,11.5898438 C223.147131,11.5898438 222.355797,11.7779929 221.74707,12.1542969 C221.138343,12.5306008 220.684572,13.0507779 220.385742,13.7148438 L220.385742,26 L216.351562,26 L216.351562,8.03710938 L220.203125,8.03710938 L220.302734,10.0458984 C220.756513,9.31542604 221.318193,8.74267786 221.987793,8.32763672 C222.657393,7.91259558 223.445959,7.70507812 224.353516,7.70507812 C224.585939,7.70507812 224.848794,7.72998022 225.14209,7.77978516 C225.435386,7.82959009 225.648437,7.88216118 225.78125,7.9375 L225.764648,11.7226562 Z" id="Apex-Launcher"></path>
                </g>
                <g id="Page-1">
                    <g id="Group-3" transform="translate(0.000000, 0.212585)">
                        <path d="M61.1738615,28.0256523 L51.0464769,18.1526369 L51.0464769,8.22599077 C51.0464769,6.29872923 49.5523538,4.73676 47.7080154,4.73676 C45.8638923,4.73676 44.3695538,6.29872923 44.3695538,8.22577538 L44.3695538,11.6434985 L33.5068462,1.05368308 L33.5070615,1.05540615 C33.3743846,0.925098462 33.2324462,0.810298462 33.0870615,0.703898462 C32.5216769,0.24276 31.8227538,0.0118676923 31.1057385,0.00368307692 C31.0837692,0.00282153846 31.0618,0.00325230769 31.0396154,0.00282153846 C30.9980462,0.00325230769 30.9569077,0.00260615385 30.9153385,0.00432923077 C30.2097385,0.0155292308 29.5218,0.241898462 28.9633077,0.692483077 C28.8125385,0.801467692 28.6660769,0.919498462 28.5293077,1.05411385 L28.5290923,1.05368308 L1.07336923,28.0245754 C-0.289584615,29.3634062 -0.364538462,31.4603908 0.9058,32.7081138 C2.17613846,33.9558369 4.31038462,33.88196 5.67355385,32.5431292 L31.0260462,7.63906769 L56.5745385,32.5444215 C57.9374923,33.8834677 60.0719538,33.9571292 61.3418615,32.7094062 C62.6122,31.4616831 62.5368154,29.3646985 61.1738615,28.0256523" id="Fill-1"></path>
                    </g>
                    <path d="M49.0780554,32.3048923 L48.9227631,32.3048923 L48.9223323,32.3048923 C47.1217169,32.3051077 45.66184,33.7649846 45.6620554,35.5658154 L45.6620554,49.3202769 L16.3697477,49.3202769 L16.3697477,35.5658154 L16.3697477,35.5653846 C16.3695323,33.7645538 14.9096554,32.3046769 13.1088246,32.3048923 L12.9537477,32.3048923 L12.9533169,32.3048923 C11.1524862,32.3051077 9.69260923,33.7649846 9.69282462,35.5658154 L9.69282462,52.5794769 L9.69282462,52.7362769 L9.69282462,52.7367077 L9.69282462,52.738 C9.69282462,54.5381846 11.1520554,55.9972 12.9518092,55.9972 L12.9537477,55.9972 L13.1088246,55.9972 L13.10904,55.9972 L48.9227631,55.9972 L49.0780554,55.9972 L49.0784862,55.9972 L49.0797785,55.9972 C50.8797477,55.9972 52.3389785,54.5381846 52.3389785,52.738 L52.3389785,52.7362769 L52.3389785,52.5794769 L52.3389785,35.5658154 L52.3389785,35.5653846 C52.3387631,33.7645538 50.8786708,32.3046769 49.0780554,32.3048923" id="Fill-4"></path>
                </g>
            </g>
        </g>
    </g>
</svg>