<svg xmlns="http://www.w3.org/2000/svg" viewBox="0 0 168 48"><defs><style>.cls-1{fill:#a6a6a6;}.cls-2{fill:#fff;}</style></defs><title>contact-black</title><g id="Layer_2" data-name="Layer 2"><g id="Layer_1-2" data-name="Layer 1"><rect width="167.4" height="48" rx="6" ry="6"/><path class="cls-1" d="M161.9,1A5.05,5.05,0,0,1,167,6V42a5.05,5.05,0,0,1-5.06,5H6A5.05,5.05,0,0,1,1,42V6A5.05,5.05,0,0,1,6,1H161.9M162,0H6A6,6,0,0,0,0,6V42a6,6,0,0,0,6,6H162a6,6,0,0,0,6-6V6a6,6,0,0,0-6-6Z"/><path class="cls-2" d="M60.57,26a4.66,4.66,0,0,1-.39,1.59,3.7,3.7,0,0,1-.91,1.25,4.14,4.14,0,0,1-1.4.81A5.59,5.59,0,0,1,56,30a4.87,4.87,0,0,1-2-.38,4,4,0,0,1-1.48-1.09,5,5,0,0,1-.93-1.72,7.43,7.43,0,0,1-.32-2.27v-.75a7.22,7.22,0,0,1,.34-2.27,5,5,0,0,1,.95-1.73,4.12,4.12,0,0,1,1.49-1.09,4.83,4.83,0,0,1,2-.38,5.43,5.43,0,0,1,1.88.3,4,4,0,0,1,1.39.84,3.8,3.8,0,0,1,.89,1.27,5.33,5.33,0,0,1,.41,1.61H58.24a3.57,3.57,0,0,0-.18-.9,1.75,1.75,0,0,0-.39-.66,1.63,1.63,0,0,0-.66-.4,3.11,3.11,0,0,0-1-.14,2,2,0,0,0-1.77.86,4.86,4.86,0,0,0-.58,2.68v.77a8.19,8.19,0,0,0,.13,1.55,3.27,3.27,0,0,0,.41,1.11,1.79,1.79,0,0,0,.72.67,2.34,2.34,0,0,0,1.07.22,3.25,3.25,0,0,0,1-.12,1.62,1.62,0,0,0,1.09-1,3.14,3.14,0,0,0,.19-.89Z"/><path class="cls-2" d="M71.47,24.38a7.25,7.25,0,0,1-.35,2.34,5.06,5.06,0,0,1-1,1.75,4.3,4.3,0,0,1-1.53,1.11,5.17,5.17,0,0,1-3.92,0,4.38,4.38,0,0,1-1.54-1.11,5.09,5.09,0,0,1-1-1.75,7.12,7.12,0,0,1-.36-2.34v-.5a7.18,7.18,0,0,1,.36-2.34,5.17,5.17,0,0,1,1-1.77,4.3,4.3,0,0,1,1.53-1.11,5.17,5.17,0,0,1,3.92,0,4.3,4.3,0,0,1,1.53,1.11,5.17,5.17,0,0,1,1,1.77,7.18,7.18,0,0,1,.36,2.34Zm-2.37-.52a4.79,4.79,0,0,0-.64-2.72,2.26,2.26,0,0,0-3.66,0,4.79,4.79,0,0,0-.64,2.72v.52A6.62,6.62,0,0,0,64.33,26a3.52,3.52,0,0,0,.48,1.15,2.11,2.11,0,0,0,.78.7,2.26,2.26,0,0,0,1.05.24,2.06,2.06,0,0,0,1.82-.94,4.87,4.87,0,0,0,.63-2.73Z"/><path class="cls-2" d="M82.49,29.81H80.15l-4.56-7.48v7.48H73.24V18.44h2.34l4.57,7.5v-7.5h2.34Z"/><path class="cls-2" d="M93.08,20.33H89.6v9.48H87.25V20.33H83.82v-1.9h9.27Z"/><path class="cls-2" d="M99.57,27.47H95.46l-.78,2.34H92.18l4.23-11.37h2.17l4.26,11.38h-2.49Zm-3.48-1.9h2.84L97.5,21.31Z"/><path class="cls-2" d="M112.47,26a4.66,4.66,0,0,1-.39,1.59,3.7,3.7,0,0,1-.91,1.25,4.14,4.14,0,0,1-1.4.81,5.59,5.59,0,0,1-1.88.29,4.87,4.87,0,0,1-2-.38,4,4,0,0,1-1.48-1.09,5,5,0,0,1-.93-1.72,7.43,7.43,0,0,1-.32-2.27v-.75a7.22,7.22,0,0,1,.34-2.27,5,5,0,0,1,.95-1.73A4.12,4.12,0,0,1,106,18.66a4.83,4.83,0,0,1,2-.38,5.43,5.43,0,0,1,1.88.3,4,4,0,0,1,1.39.84,3.8,3.8,0,0,1,.89,1.27,5.33,5.33,0,0,1,.41,1.61h-2.34a3.57,3.57,0,0,0-.18-.9,1.75,1.75,0,0,0-.39-.66,1.63,1.63,0,0,0-.66-.4,3.11,3.11,0,0,0-1-.14,2,2,0,0,0-1.77.86,4.86,4.86,0,0,0-.58,2.68v.77a8.19,8.19,0,0,0,.13,1.55,3.27,3.27,0,0,0,.41,1.11,1.79,1.79,0,0,0,.72.67,2.34,2.34,0,0,0,1.07.22,3.25,3.25,0,0,0,1-.12,1.62,1.62,0,0,0,1.09-1,3.14,3.14,0,0,0,.19-.89Z"/><path class="cls-2" d="M122.57,20.33h-3.48v9.48h-2.34V20.33H113.3v-1.9h9.27Z"/><path class="cls-2" d="M136.5,18.44v7.51a4.32,4.32,0,0,1-.33,1.74,3.52,3.52,0,0,1-.91,1.26,3.84,3.84,0,0,1-1.38.77,6.07,6.07,0,0,1-3.5,0,3.84,3.84,0,0,1-1.38-.77,3.48,3.48,0,0,1-.9-1.26,4.37,4.37,0,0,1-.32-1.74V18.44h2.34v7.51a2.17,2.17,0,0,0,.54,1.63,2.4,2.4,0,0,0,3,0,2.19,2.19,0,0,0,.53-1.63V18.44Z"/><path class="cls-2" d="M144.32,26.83a1.56,1.56,0,0,0-.09-.54,1,1,0,0,0-.33-.44,3,3,0,0,0-.68-.4,10.74,10.74,0,0,0-1.12-.41,13.91,13.91,0,0,1-1.47-.56,5.4,5.4,0,0,1-1.21-.74,3.28,3.28,0,0,1-.82-1,2.68,2.68,0,0,1-.3-1.3,2.76,2.76,0,0,1,.31-1.3,2.94,2.94,0,0,1,.87-1,4.25,4.25,0,0,1,1.33-.64,5.89,5.89,0,0,1,1.69-.23,5.33,5.33,0,0,1,1.72.26,4,4,0,0,1,1.32.73,3.24,3.24,0,0,1,.84,1.11,3.32,3.32,0,0,1,.3,1.41h-2.34a1.9,1.9,0,0,0-.11-.66,1.34,1.34,0,0,0-.35-.52,1.63,1.63,0,0,0-.59-.34,2.54,2.54,0,0,0-.83-.12,2.82,2.82,0,0,0-.8.1,1.62,1.62,0,0,0-.56.28,1.19,1.19,0,0,0-.34.42,1.2,1.2,0,0,0-.11.52,1.11,1.11,0,0,0,.57.94,6.48,6.48,0,0,0,1.68.71,11,11,0,0,1,1.64.64,4.87,4.87,0,0,1,1.18.8,3,3,0,0,1,.71,1,3.12,3.12,0,0,1,.24,1.26,3,3,0,0,1-.29,1.34,2.76,2.76,0,0,1-.83,1,3.94,3.94,0,0,1-1.3.62,6.24,6.24,0,0,1-1.7.21,6.53,6.53,0,0,1-1.12-.1,5.41,5.41,0,0,1-1.07-.3,4.7,4.7,0,0,1-.95-.51,3.48,3.48,0,0,1-.76-.72,3.25,3.25,0,0,1-.51-.94,3.54,3.54,0,0,1-.18-1.17h2.35a2.1,2.1,0,0,0,.16.88,1.5,1.5,0,0,0,.46.58,1.89,1.89,0,0,0,.71.32,3.89,3.89,0,0,0,.92.1,2.83,2.83,0,0,0,.79-.1,1.63,1.63,0,0,0,.55-.27,1.07,1.07,0,0,0,.32-.41A1.25,1.25,0,0,0,144.32,26.83Z"/><path class="cls-2" d="M32.2,16h-16a2,2,0,0,0-2,2V30a2,2,0,0,0,2,2h16a2,2,0,0,0,2-2V18A2,2,0,0,0,32.2,16Zm0,4-8,5-8-5V18l8,5,8-5Z"/></g></g></svg>