<?xml version="1.0" encoding="UTF-8"?>
<svg width="24px" height="24px" viewBox="0 0 24 24" version="1.1" xmlns="http://www.w3.org/2000/svg" xmlns:xlink="http://www.w3.org/1999/xlink">
    <!-- Generator: Sketch 43.1 (39012) - http://www.bohemiancoding.com/sketch -->
    <title>facebook</title>
    <desc>Created with Sketch.</desc>
    <defs></defs>
    <g id="Symbols" stroke="none" stroke-width="1" fill="none" fill-rule="evenodd">
        <g id="social-buttons" transform="translate(-53.000000, 0.000000)" fill-rule="nonzero" fill="#FFFFFF">
            <g id="facebook" transform="translate(53.000000, 0.000000)">
                <path d="M22.6660674,0 L1.32404494,0 C0.592795113,-4.47761382e-17 8.95522764e-17,0.592795113 0,1.32404494 L0,22.6660674 C8.95522764e-17,23.3973172 0.592795113,23.9901124 1.32404494,23.9901124 L12.814382,23.9901124 L12.814382,14.7002247 L9.68808989,14.7002247 L9.68808989,11.0795506 L12.814382,11.0795506 L12.814382,8.40898876 C12.814382,5.3105618 14.7065169,3.62337079 17.4714607,3.62337079 C18.404603,3.62016063 19.3372254,3.667872 20.2651685,3.76629213 L20.2651685,7.00224719 L18.3478652,7.00224719 C16.8449438,7.00224719 16.5501124,7.71685393 16.5501124,8.76494382 L16.5501124,11.0768539 L20.1348315,11.0768539 L19.6683146,14.6975281 L16.552809,14.6975281 L16.552809,23.9901124 L22.6651685,23.9901124 C23.3964184,23.9901124 23.9892135,23.3973172 23.9892135,22.6660674 L23.9892135,1.32404494 C23.9892137,0.593146003 23.3969662,0.000496197516 22.6660674,0 L22.6660674,0 Z" id="White-2"></path>
            </g>
        </g>
    </g>
</svg>