<?xml version="1.0" encoding="UTF-8"?>
<svg width="38px" height="24px" viewBox="0 0 38 24" version="1.1" xmlns="http://www.w3.org/2000/svg" xmlns:xlink="http://www.w3.org/1999/xlink">
    <!-- Generator: Sketch 43.1 (39012) - http://www.bohemiancoding.com/sketch -->
    <title>google-plus</title>
    <desc>Created with Sketch.</desc>
    <defs></defs>
    <g id="Symbols" stroke="none" stroke-width="1" fill="none" fill-rule="evenodd">
        <g id="social-buttons" fill="#FFFFFF">
            <path d="M33.6237624,9.86138614 L33.6237624,5.7029703 L30.6534653,5.7029703 L30.6534653,9.86138614 L26.3762376,9.86138614 L26.3762376,12.8316832 L30.6534653,12.8316832 L30.6534653,17.1089109 L33.6237624,17.1089109 L33.6237624,12.8316832 L37.7821782,12.8316832 L37.7821782,9.86138614 L33.6237624,9.86138614 Z M12,9.62376238 L12,14.3762376 C12,14.3762376 16.6103762,14.3700594 18.487604,14.3700594 C17.4710495,17.4509703 15.8903762,19.1287129 12,19.1287129 C8.06293069,19.1287129 4.99009901,15.9370693 4.99009901,12 C4.99009901,8.06293069 8.06293069,4.87128713 12,4.87128713 C14.0815842,4.87128713 15.4259406,5.60293069 16.6590891,6.62269307 C17.6461782,5.63560396 17.5637228,5.49493069 20.0750495,3.12332673 C17.9432079,1.18289109 15.1097822,0 12,0 C5.37255446,0 0,5.37255446 0,12 C0,18.6273267 5.37255446,24 12,24 C21.9061782,24 24.3274455,15.3742574 23.5247525,9.62376238 L12,9.62376238 Z" id="google-plus"></path>
        </g>
    </g>
</svg>