<?xml version="1.0" encoding="UTF-8"?>
<svg width="28px" height="24px" viewBox="0 0 28 24" version="1.1" xmlns="http://www.w3.org/2000/svg" xmlns:xlink="http://www.w3.org/1999/xlink">
    <!-- Generator: Sketch 43.1 (39012) - http://www.bohemiancoding.com/sketch -->
    <title>medium</title>
    <desc>Created with Sketch.</desc>
    <defs></defs>
    <g id="Symbols" stroke="none" stroke-width="1" fill="none" fill-rule="evenodd">
        <g id="social-buttons" transform="translate(-149.000000, 0.000000)" fill="#FFFFFF">
            <g id="medium" transform="translate(149.000000, 0.000000)">
                <path d="M27.3448571,4.64005714 C27.3391429,4.63605714 27.3351429,4.63034286 27.3288571,4.62805714 L27.3191429,4.62291429 L19.0454286,0.4852 C18.9894286,0.457771429 18.93,0.438342857 18.8711429,0.423485714 C18.7962857,0.404628571 18.7202857,0.392628571 18.6431429,0.392628571 C18.3271429,0.392628571 18.0111429,0.552057143 17.8402857,0.8292 L13.0768571,8.57034286 L19.0551429,18.2840571 L27.37,4.77205714 C27.398,4.72748571 27.3842857,4.67205714 27.3448571,4.64005714" id="Fill-1"></path>
                <polygon id="Fill-3" points="10.4534286 6.80685714 10.4534286 15.6182857 18.286 19.5342857"></polygon>
                <path d="M19.4626286,20.1227429 L25.9094857,23.3467429 C26.7483429,23.7656 27.4283429,23.4718857 27.4283429,22.6907429 L27.4283429,7.17817143 L19.4626286,20.1227429 Z" id="Fill-5"></path>
                <path d="M9.09377143,4.65285714 L1.01262857,0.612285714 C0.866914286,0.539714286 0.727485714,0.504857143 0.602342857,0.504857143 C0.248057143,0.504857143 5.71428571e-05,0.778571429 5.71428571e-05,1.238 L5.71428571e-05,18.6854286 C5.71428571e-05,19.1522857 0.341771429,19.7054286 0.759485714,19.914 L7.8772,23.4734286 C8.05948571,23.5642857 8.2332,23.6071429 8.39034286,23.6071429 C8.83262857,23.6071429 9.14291429,23.2648571 9.14291429,22.6905714 L9.14291429,4.73228571 C9.14291429,4.69857143 9.12405714,4.66771429 9.09377143,4.65285714" id="Fill-7"></path>
            </g>
        </g>
    </g>
</svg>