<svg xmlns="http://www.w3.org/2000/svg" xmlns:xlink="http://www.w3.org/1999/xlink" viewBox="0 0 162 48"><defs><style>.cls-1{fill:#a6a6a6;}.cls-2,.cls-9{fill:#fff;}.cls-3{fill:url(#linear-gradient);}.cls-4{fill:url(#linear-gradient-2);}.cls-5{fill:url(#linear-gradient-3);}.cls-6{fill:url(#linear-gradient-4);}.cls-7{opacity:0.2;}.cls-7,.cls-8,.cls-9{isolation:isolate;}.cls-8{opacity:0.12;}.cls-9{opacity:0.25;}</style><linearGradient id="linear-gradient" x1="26.16" y1="297.55" x2="6.02" y2="277.41" gradientTransform="matrix(1, 0, 0, -1, 0, 308)" gradientUnits="userSpaceOnUse"><stop offset="0" stop-color="#00a0ff"/><stop offset="0.01" stop-color="#00a1ff"/><stop offset="0.26" stop-color="#00beff"/><stop offset="0.51" stop-color="#00d2ff"/><stop offset="0.76" stop-color="#00dfff"/><stop offset="1" stop-color="#00e3ff"/></linearGradient><linearGradient id="linear-gradient-2" x1="40.6" y1="284" x2="11.56" y2="284" gradientTransform="matrix(1, 0, 0, -1, 0, 308)" gradientUnits="userSpaceOnUse"><stop offset="0" stop-color="#ffe000"/><stop offset="0.41" stop-color="#ffbd00"/><stop offset="0.78" stop-color="orange"/><stop offset="1" stop-color="#ff9c00"/></linearGradient><linearGradient id="linear-gradient-3" x1="29.79" y1="281.24" x2="2.48" y2="253.93" gradientTransform="matrix(1, 0, 0, -1, 0, 308)" gradientUnits="userSpaceOnUse"><stop offset="0" stop-color="#ff3a44"/><stop offset="1" stop-color="#c31162"/></linearGradient><linearGradient id="linear-gradient-4" x1="8.76" y1="307.79" x2="20.95" y2="295.59" gradientTransform="matrix(1, 0, 0, -1, 0, 308)" gradientUnits="userSpaceOnUse"><stop offset="0" stop-color="#32a071"/><stop offset="0.07" stop-color="#2da771"/><stop offset="0.48" stop-color="#15cf74"/><stop offset="0.8" stop-color="#06e775"/><stop offset="1" stop-color="#00f076"/></linearGradient></defs><title>playstore-1</title><g id="Layer_2" data-name="Layer 2"><g id="Layer_1-2" data-name="Layer 1"><rect x="0.5" y="0.5" width="161" height="47" rx="5.5" ry="5.5"/><path class="cls-1" d="M156,1a5,5,0,0,1,5,5V42a5,5,0,0,1-5,5H6a5,5,0,0,1-5-5V6A5,5,0,0,1,6,1H156m0-1H6A6,6,0,0,0,0,6V42a6,6,0,0,0,6,6H156a6,6,0,0,0,6-6V6a6,6,0,0,0-6-6Z"/><path class="cls-2" d="M56.94,11.65H53.26v1.06h2.6A2.12,2.12,0,0,1,55.3,14a2.72,2.72,0,0,1-4.64-2,2.68,2.68,0,0,1,2.7-2.78,2.32,2.32,0,0,1,1.9.82l.07.08.78-.78L56,9.28a3.08,3.08,0,0,0-1.16-.83,3.83,3.83,0,0,0-1.52-.31A3.81,3.81,0,0,0,49.52,12a3.81,3.81,0,0,0,3.84,3.86,3.6,3.6,0,0,0,2.72-1.09A3.36,3.36,0,0,0,57,12.29a3.15,3.15,0,0,0-.05-.56Z"/><polygon class="cls-2" points="58.13 15.7 62.53 15.7 62.53 14.62 59.25 14.62 59.25 12.53 62.21 12.53 62.21 11.47 59.25 11.47 59.25 9.38 62.53 9.38 62.53 8.3 58.13 8.3 58.13 15.7"/><polygon class="cls-2" points="63.3 9.38 65.31 9.38 65.31 15.7 66.43 15.7 66.43 9.38 68.44 9.38 68.44 8.3 63.3 8.3 63.3 9.38"/><rect class="cls-2" x="71.83" y="8.3" width="1.12" height="7.4"/><polygon class="cls-2" points="73.92 9.38 75.93 9.38 75.93 15.7 77.05 15.7 77.05 9.38 79.06 9.38 79.06 8.3 73.92 8.3 73.92 9.38"/><path class="cls-2" d="M85.69,8.14A3.64,3.64,0,0,0,83,9.26,3.79,3.79,0,0,0,81.89,12,3.8,3.8,0,0,0,83,14.74a3.84,3.84,0,0,0,5.42,0A3.8,3.8,0,0,0,89.49,12,3.79,3.79,0,0,0,88.4,9.27,3.64,3.64,0,0,0,85.69,8.14ZM88.35,12a2.73,2.73,0,0,1-.77,2,2.67,2.67,0,0,1-3.77,0A2.74,2.74,0,0,1,83,12a2.74,2.74,0,0,1,.77-2,2.67,2.67,0,0,1,3.77,0A2.73,2.73,0,0,1,88.35,12Z"/><polygon class="cls-2" points="95.22 8.3 95.22 12.62 95.25 13.7 91.87 8.3 90.59 8.3 90.59 15.7 91.71 15.7 91.71 11.11 91.68 10.03 95.19 15.65 95.22 15.7 96.34 15.7 96.34 8.3 95.22 8.3"/><path class="cls-2" d="M81.76,26.1a5.1,5.1,0,1,0,5.12,5.1A5,5,0,0,0,81.76,26.1Zm0,8.2a3.1,3.1,0,1,1,2.88-3.09A3,3,0,0,1,81.76,34.3ZM70.59,26.1a5.1,5.1,0,1,0,5.12,5.1A5,5,0,0,0,70.59,26.1Zm0,8.2a3.1,3.1,0,1,1,2.88-3.09A3,3,0,0,1,70.59,34.3ZM57.29,27.67v2.17h5.18a4.52,4.52,0,0,1-1.18,2.73,5.3,5.3,0,0,1-4,1.59,5.76,5.76,0,0,1,0-11.52,5.52,5.52,0,0,1,3.91,1.55l1.53-1.53a7.55,7.55,0,0,0-5.43-2.18,7.93,7.93,0,1,0,0,15.85,7.25,7.25,0,0,0,5.53-2.22A7.15,7.15,0,0,0,64.7,29a7,7,0,0,0-.12-1.35Zm54.37,1.68a4.74,4.74,0,0,0-4.37-3.25,4.85,4.85,0,0,0-4.81,5.1,5,5,0,0,0,5.07,5.1A5.08,5.08,0,0,0,111.8,34l-1.74-1.16a2.91,2.91,0,0,1-2.51,1.41,2.6,2.6,0,0,1-2.47-1.55l6.82-2.82Zm-7,1.7a2.8,2.8,0,0,1,2.67-3,2,2,0,0,1,1.89,1.08ZM99.15,36h2.24V21H99.15Zm-3.67-8.76H95.4a3.54,3.54,0,0,0-2.69-1.14,5.11,5.11,0,0,0,0,10.21,3.48,3.48,0,0,0,2.69-1.16h.08v.73c0,2-1,3-2.73,3a2.82,2.82,0,0,1-2.57-1.82l-2,.81a4.86,4.86,0,0,0,4.52,3c2.63,0,4.85-1.55,4.85-5.32V26.41H95.48ZM92.91,34.3a3.1,3.1,0,0,1,0-6.19,2.88,2.88,0,0,1,2.73,3.11A2.85,2.85,0,0,1,92.91,34.3ZM122.17,21H116.8V36H119V30.32h3.13a4.67,4.67,0,1,0,0-9.32Zm.06,7.23H119V23.09h3.18a2.57,2.57,0,1,1,0,5.14Zm13.84-2.15a4.2,4.2,0,0,0-4,2.3l2,.83a2.12,2.12,0,0,1,2-1.1A2.16,2.16,0,0,1,138.46,30v.15a5,5,0,0,0-2.34-.58c-2.14,0-4.32,1.18-4.32,3.38a3.47,3.47,0,0,0,3.72,3.3,3.16,3.16,0,0,0,2.86-1.47h.08V36h2.16V30.22C140.62,27.56,138.63,26.07,136.06,26.07Zm-.27,8.22c-.73,0-1.76-.37-1.76-1.27,0-1.16,1.27-1.6,2.37-1.6a4,4,0,0,1,2,.5A2.71,2.71,0,0,1,135.79,34.3Zm12.7-7.89-2.57,6.5h-.08l-2.66-6.5h-2.41l4,9.09-2.28,5.06h2.34L151,26.4ZM128.32,36h2.24V21h-2.24Z"/><path class="cls-3" d="M12.52,9A2.4,2.4,0,0,0,12,10.73V37.27A2.4,2.4,0,0,0,12.52,39l.09.09L27.48,24.18v-.35L12.61,9Z"/><path class="cls-4" d="M32.43,29.13l-5-5v-.35l5-5,.11.06,5.87,3.34c1.68,1,1.68,2.51,0,3.47l-5.87,3.34Z"/><path class="cls-5" d="M32.55,29.07,27.48,24l-15,15A2,2,0,0,0,15,39l17.53-10"/><path class="cls-6" d="M32.55,18.93,15,9A2,2,0,0,0,12.52,9l15,15Z"/><path class="cls-7" d="M32.43,29,15,38.85a2,2,0,0,1-2.4,0h0l-.09.09h0l.09.09h0A2,2,0,0,0,15,39l17.53-10Z"/><path class="cls-8" d="M12.52,38.78A2.4,2.4,0,0,1,12,37.1v.18A2.4,2.4,0,0,0,12.52,39l.09-.09Z"/><path class="cls-8" d="M38.42,25.56l-6,3.4.11.11,5.87-3.34A2.11,2.11,0,0,0,39.68,24h0A2.23,2.23,0,0,1,38.42,25.56Z"/><path class="cls-9" d="M15,9.15l23.4,13.3A2.23,2.23,0,0,1,39.68,24h0a2.1,2.1,0,0,0-1.26-1.73L15,9c-1.68-1-3-.16-3,1.76v.18C12,9,13.34,8.2,15,9.15Z"/></g></g></svg>