<svg xmlns="http://www.w3.org/2000/svg" xmlns:xlink="http://www.w3.org/1999/xlink" viewBox="0 0 162 48"><defs><style>.cls-1{fill:#a6a6a6;}.cls-2{fill:url(#linear-gradient);}.cls-3{fill:url(#linear-gradient-2);}.cls-4{fill:url(#linear-gradient-3);}.cls-5{fill:url(#linear-gradient-4);}.cls-6{opacity:0.2;}.cls-6,.cls-7,.cls-8{isolation:isolate;}.cls-7{opacity:0.12;}.cls-8,.cls-9{fill:#fff;}.cls-8{opacity:0.25;}</style><linearGradient id="linear-gradient" x1="26.16" y1="-122.45" x2="6.02" y2="-142.59" gradientTransform="matrix(1, 0, 0, -1, 0, -112)" gradientUnits="userSpaceOnUse"><stop offset="0" stop-color="#00a0ff"/><stop offset="0.01" stop-color="#00a1ff"/><stop offset="0.26" stop-color="#00beff"/><stop offset="0.51" stop-color="#00d2ff"/><stop offset="0.76" stop-color="#00dfff"/><stop offset="1" stop-color="#00e3ff"/></linearGradient><linearGradient id="linear-gradient-2" x1="40.6" y1="-136" x2="11.56" y2="-136" gradientTransform="matrix(1, 0, 0, -1, 0, -112)" gradientUnits="userSpaceOnUse"><stop offset="0" stop-color="#ffe000"/><stop offset="0.41" stop-color="#ffbd00"/><stop offset="0.78" stop-color="orange"/><stop offset="1" stop-color="#ff9c00"/></linearGradient><linearGradient id="linear-gradient-3" x1="29.79" y1="-138.76" x2="2.48" y2="-166.07" gradientTransform="matrix(1, 0, 0, -1, 0, -112)" gradientUnits="userSpaceOnUse"><stop offset="0" stop-color="#ff3a44"/><stop offset="1" stop-color="#c31162"/></linearGradient><linearGradient id="linear-gradient-4" x1="8.76" y1="-112.21" x2="20.95" y2="-124.41" gradientTransform="matrix(1, 0, 0, -1, 0, -112)" gradientUnits="userSpaceOnUse"><stop offset="0" stop-color="#32a071"/><stop offset="0.07" stop-color="#2da771"/><stop offset="0.48" stop-color="#15cf74"/><stop offset="0.8" stop-color="#06e775"/><stop offset="1" stop-color="#00f076"/></linearGradient></defs><title>playstore-2</title><g id="Layer_2" data-name="Layer 2"><g id="Layer_1-2" data-name="Layer 1"><path d="M5.57,47.5A5.31,5.31,0,0,1,.5,42V6A5.31,5.31,0,0,1,5.57.5H156.43A5.31,5.31,0,0,1,161.5,6V42a5.31,5.31,0,0,1-5.07,5.5Z"/><path class="cls-1" d="M156.43,1A4.81,4.81,0,0,1,161,6V42a4.81,4.81,0,0,1-4.57,5H5.57A4.81,4.81,0,0,1,1,42V6A4.81,4.81,0,0,1,5.57,1H156.43m0-1H5.57A5.82,5.82,0,0,0,0,6V42a5.82,5.82,0,0,0,5.57,6H156.43A5.82,5.82,0,0,0,162,42V6a5.82,5.82,0,0,0-5.57-6Z"/><path class="cls-2" d="M12.52,9A2.4,2.4,0,0,0,12,10.73V37.27A2.4,2.4,0,0,0,12.52,39l.09.09L27.48,24.18v-.35L12.61,9Z"/><path class="cls-3" d="M32.43,29.13l-5-5v-.35l5-5,.11.06,5.87,3.34c1.68,1,1.68,2.51,0,3.47l-5.87,3.34Z"/><path class="cls-4" d="M32.55,29.07,27.48,24l-15,15A2,2,0,0,0,15,39l17.53-10"/><path class="cls-5" d="M32.55,18.93,15,9A2,2,0,0,0,12.52,9l15,15Z"/><path class="cls-6" d="M32.43,29,15,38.85a2,2,0,0,1-2.4,0h0l-.09.09h0l.09.09h0A2,2,0,0,0,15,39l17.53-10Z"/><path class="cls-7" d="M12.52,38.78A2.4,2.4,0,0,1,12,37.1v.18A2.4,2.4,0,0,0,12.52,39l.09-.09Z"/><path class="cls-7" d="M38.42,25.56l-6,3.4.11.11,5.87-3.34A2.11,2.11,0,0,0,39.68,24h0A2.23,2.23,0,0,1,38.42,25.56Z"/><path class="cls-8" d="M15,9.15l23.4,13.3A2.23,2.23,0,0,1,39.68,24h0a2.1,2.1,0,0,0-1.26-1.73L15,9c-1.68-1-3-.16-3,1.76v.18C12,9,13.34,8.2,15,9.15Z"/><path class="cls-9" d="M60.64,28.37a3.81,3.81,0,0,1-.55.52,4.22,4.22,0,0,1-.88.52,6.5,6.5,0,0,1-1.25.4,7.74,7.74,0,0,1-1.66.16,5.38,5.38,0,0,1-2-.36,4.22,4.22,0,0,1-1.56-1.07,4.86,4.86,0,0,1-1-1.73,7.12,7.12,0,0,1-.36-2.34v-.67a7.47,7.47,0,0,1,.34-2.35,4.9,4.9,0,0,1,1-1.73,4.06,4.06,0,0,1,1.5-1.07,5.05,5.05,0,0,1,2-.37,5.94,5.94,0,0,1,1.92.28,3.77,3.77,0,0,1,1.35.78,3.52,3.52,0,0,1,.85,1.2,5.25,5.25,0,0,1,.4,1.52H58.36a3.37,3.37,0,0,0-.22-.78,1.77,1.77,0,0,0-.41-.59,1.74,1.74,0,0,0-.64-.38,2.73,2.73,0,0,0-.9-.13,2.08,2.08,0,0,0-1.83.91,4.78,4.78,0,0,0-.62,2.7v.69a4.5,4.5,0,0,0,.68,2.7,2.33,2.33,0,0,0,2,.91,4.34,4.34,0,0,0,.73-.05,3.1,3.1,0,0,0,.54-.14,1.8,1.8,0,0,0,.37-.18,1.58,1.58,0,0,0,.24-.19v-2H56.16V23.83h4.48Z"/><path class="cls-9" d="M69.5,24.88H65v3h5.28v1.88H62.66V18.44h7.61v1.9H65V23h4.5Z"/><path class="cls-9" d="M80.53,20.33H77v9.48H74.71V20.33H71.27v-1.9h9.27Z"/><path class="cls-9" d="M88.2,25.8v4H85.85V18.44h4.44a5.37,5.37,0,0,1,1.8.28,3.89,3.89,0,0,1,1.34.79,3.35,3.35,0,0,1,.84,1.2,3.86,3.86,0,0,1,.29,1.5,3.71,3.71,0,0,1-.29,1.49,3.08,3.08,0,0,1-.84,1.13,3.86,3.86,0,0,1-1.34.72,5.91,5.91,0,0,1-1.8.25Zm0-1.9h2.09a2.67,2.67,0,0,0,.86-.12,1.57,1.57,0,0,0,.59-.35,1.36,1.36,0,0,0,.34-.54,2,2,0,0,0,.11-.68,2.28,2.28,0,0,0-.11-.71,1.69,1.69,0,0,0-.34-.6,1.64,1.64,0,0,0-.59-.42,2.17,2.17,0,0,0-.86-.16H88.2Z"/><path class="cls-9" d="M100.23,25.65H98.36v4.16H96V18.44h4.23a6.44,6.44,0,0,1,1.77.22,3.7,3.7,0,0,1,1.32.66,2.88,2.88,0,0,1,.83,1.07,3.58,3.58,0,0,1,.29,1.48,4.11,4.11,0,0,1-.14,1.12,2.92,2.92,0,0,1-1,1.56,4.21,4.21,0,0,1-.84.5l2.46,4.65v.11h-2.52Zm-1.87-1.9h1.89a2.45,2.45,0,0,0,.81-.12,1.56,1.56,0,0,0,.58-.34,1.44,1.44,0,0,0,.35-.53,1.94,1.94,0,0,0,.12-.69,1.72,1.72,0,0,0-.46-1.27,1.9,1.9,0,0,0-1.4-.46H98.36Z"/><path class="cls-9" d="M115.46,24.38a7.25,7.25,0,0,1-.35,2.34,5.06,5.06,0,0,1-1,1.75,4.3,4.3,0,0,1-1.53,1.11,5.17,5.17,0,0,1-3.92,0,4.38,4.38,0,0,1-1.54-1.11,5.09,5.09,0,0,1-1-1.75,7.12,7.12,0,0,1-.36-2.34v-.5a7.18,7.18,0,0,1,.36-2.34,5.17,5.17,0,0,1,1-1.77,4.3,4.3,0,0,1,1.53-1.11,5.17,5.17,0,0,1,3.92,0,4.3,4.3,0,0,1,1.53,1.11,5.17,5.17,0,0,1,1,1.77,7.18,7.18,0,0,1,.36,2.34Zm-2.37-.52a4.79,4.79,0,0,0-.64-2.72,2.26,2.26,0,0,0-3.66,0,4.79,4.79,0,0,0-.64,2.72v.52a6.62,6.62,0,0,0,.17,1.57,3.52,3.52,0,0,0,.48,1.15,2.11,2.11,0,0,0,.78.7,2.26,2.26,0,0,0,1.05.24,2.06,2.06,0,0,0,1.82-.94,4.87,4.87,0,0,0,.63-2.73Z"/><path class="cls-9" d="M125.28,24.57a1.13,1.13,0,0,0-.06-.56,1.24,1.24,0,0,0-.29-.42,2,2,0,0,0-.44-.32A4.18,4.18,0,0,0,124,23a5.27,5.27,0,0,1-.81-.39,2.73,2.73,0,0,1-.65-.52,2,2,0,0,1-.41-.69,2.25,2.25,0,0,1-.1-.9,2.56,2.56,0,0,1,.23-.92,2.35,2.35,0,0,1,.5-.71,2.5,2.5,0,0,1,.73-.48,3.28,3.28,0,0,1,.91-.25l.23-1.28h.86l-.23,1.3a1.93,1.93,0,0,1,.83.36,1.88,1.88,0,0,1,.52.63,2.52,2.52,0,0,1,.25.81,4.26,4.26,0,0,1,0,.91h-1a3.69,3.69,0,0,0,0-.62,1.69,1.69,0,0,0-.16-.57,1.15,1.15,0,0,0-.36-.42,1.06,1.06,0,0,0-.6-.18,1.74,1.74,0,0,0-.61.09,1.41,1.41,0,0,0-.82.73,1.76,1.76,0,0,0-.16.59,1.22,1.22,0,0,0,.06.58,1.19,1.19,0,0,0,.28.42,1.84,1.84,0,0,0,.44.31,5.86,5.86,0,0,0,.54.24,5.74,5.74,0,0,1,.81.39,2.68,2.68,0,0,1,.64.52,2,2,0,0,1,.4.69,2.26,2.26,0,0,1,.1.9,2.52,2.52,0,0,1-.25,1,2.29,2.29,0,0,1-.54.71,2.64,2.64,0,0,1-.78.47,3.63,3.63,0,0,1-1,.23l-.2,1.12h-.85L123,26.9a2.31,2.31,0,0,1-.89-.3,1.94,1.94,0,0,1-.6-.57,2.23,2.23,0,0,1-.33-.79,3.5,3.5,0,0,1-.06-.94h1.06a2.32,2.32,0,0,0,0,.65,1.42,1.42,0,0,0,.22.54,1.13,1.13,0,0,0,.42.36,1.44,1.44,0,0,0,.64.14,2.23,2.23,0,0,0,.65-.08,1.75,1.75,0,0,0,.56-.27,1.51,1.51,0,0,0,.62-1.07Z"/><path class="cls-9" d="M130.58,22h.7a2.51,2.51,0,0,0,.69-.09,1.88,1.88,0,0,0,.59-.28,1.61,1.61,0,0,0,.44-.47,1.65,1.65,0,0,0,.22-.67,2,2,0,0,0,0-.59,1.1,1.1,0,0,0-.2-.46,1,1,0,0,0-.39-.3A1.45,1.45,0,0,0,132,19a1.83,1.83,0,0,0-.64.1,1.57,1.57,0,0,0-.52.3,1.65,1.65,0,0,0-.37.47,2,2,0,0,0-.21.61h-1a2.52,2.52,0,0,1,.31-1,2.61,2.61,0,0,1,.63-.75,2.73,2.73,0,0,1,.87-.47,3.14,3.14,0,0,1,1-.16,2.71,2.71,0,0,1,1,.18,2,2,0,0,1,.71.48,1.9,1.9,0,0,1,.43.74,2.48,2.48,0,0,1,.09,1,1.78,1.78,0,0,1-.18.65,2.37,2.37,0,0,1-.37.54,2.58,2.58,0,0,1-.5.43,4.06,4.06,0,0,1-.59.32,1.68,1.68,0,0,1,.51.32,1.72,1.72,0,0,1,.53,1,2.52,2.52,0,0,1,0,.61,2.81,2.81,0,0,1-.3,1.07,2.67,2.67,0,0,1-.64.81,2.75,2.75,0,0,1-.91.51,3.22,3.22,0,0,1-1.1.16,2.81,2.81,0,0,1-1-.18,2.19,2.19,0,0,1-.75-.48,2,2,0,0,1-.47-.74,2.4,2.4,0,0,1-.13-1h1.06a1.69,1.69,0,0,0,.06.6,1.23,1.23,0,0,0,.25.46,1.13,1.13,0,0,0,.42.3,1.64,1.64,0,0,0,.59.12,1.91,1.91,0,0,0,.71-.1,1.69,1.69,0,0,0,.56-.33,1.66,1.66,0,0,0,.39-.52,2.06,2.06,0,0,0,.19-.68,1.57,1.57,0,0,0,0-.65,1.1,1.1,0,0,0-.28-.46,1.22,1.22,0,0,0-.47-.28,2.16,2.16,0,0,0-.63-.11h-.82Z"/><path class="cls-9" d="M135.06,26.26a.66.66,0,0,1,.65-.68.63.63,0,0,1,.47.18.61.61,0,0,1,.18.47.63.63,0,0,1-.19.47.7.7,0,0,1-.47.19.67.67,0,0,1-.26,0,.58.58,0,0,1-.21-.13.56.56,0,0,1-.13-.2A.69.69,0,0,1,135.06,26.26Z"/><path class="cls-9" d="M138.6,25.91a3.78,3.78,0,0,0,1.29-.19,2.84,2.84,0,0,0,1-.57,3.23,3.23,0,0,0,.69-.9,6.07,6.07,0,0,0,.47-1.19,3.56,3.56,0,0,1-.4.37,2.59,2.59,0,0,1-.95.47,2,2,0,0,1-.54.06,1.89,1.89,0,0,1-1-.26,2,2,0,0,1-.64-.64,2.57,2.57,0,0,1-.33-.89,3.67,3.67,0,0,1,0-1,3.89,3.89,0,0,1,.28-1.15,3.34,3.34,0,0,1,.6-1,2.74,2.74,0,0,1,.89-.66,2.54,2.54,0,0,1,1.16-.23,2.28,2.28,0,0,1,.83.16,1.94,1.94,0,0,1,.62.4,2.15,2.15,0,0,1,.42.59,3.26,3.26,0,0,1,.25.72,4.15,4.15,0,0,1,.1.79,5.14,5.14,0,0,1,0,.8l-.05.39a9,9,0,0,1-.47,1.89,5,5,0,0,1-.88,1.53,4,4,0,0,1-1.37,1,4.55,4.55,0,0,1-1.92.38h-.13l.09-.91Zm1.75-2.85a1.57,1.57,0,0,0,.57-.08,2,2,0,0,0,.5-.25,2.47,2.47,0,0,0,.43-.38,2.73,2.73,0,0,0,.33-.46l0-.43q0-.22,0-.47a4,4,0,0,0,0-.52,2.94,2.94,0,0,0-.12-.51,1.6,1.6,0,0,0-.22-.44,1.12,1.12,0,0,0-.35-.31,1.07,1.07,0,0,0-.5-.13,1.4,1.4,0,0,0-.75.16,1.79,1.79,0,0,0-.55.47,2.41,2.41,0,0,0-.36.66,3,3,0,0,0-.17.74,2.93,2.93,0,0,0,0,.65,2,2,0,0,0,.17.63,1.27,1.27,0,0,0,.38.48A1,1,0,0,0,140.35,23.06Z"/><path class="cls-9" d="M145.09,25.91a3.78,3.78,0,0,0,1.29-.19,2.84,2.84,0,0,0,1-.57,3.23,3.23,0,0,0,.69-.9,6.07,6.07,0,0,0,.47-1.19,3.56,3.56,0,0,1-.4.37,2.59,2.59,0,0,1-.95.47,2,2,0,0,1-.54.06,1.89,1.89,0,0,1-1-.26,2,2,0,0,1-.64-.64,2.57,2.57,0,0,1-.33-.89,3.67,3.67,0,0,1,0-1A3.89,3.89,0,0,1,144.9,20a3.34,3.34,0,0,1,.6-1,2.74,2.74,0,0,1,.89-.66,2.54,2.54,0,0,1,1.16-.23,2.28,2.28,0,0,1,.83.16,1.94,1.94,0,0,1,.62.4,2.15,2.15,0,0,1,.42.59,3.26,3.26,0,0,1,.25.72,4.15,4.15,0,0,1,.1.79,5.14,5.14,0,0,1,0,.8l-.05.39a9,9,0,0,1-.47,1.89,5,5,0,0,1-.88,1.53,4,4,0,0,1-1.37,1,4.55,4.55,0,0,1-1.92.38h-.13l.09-.91Zm1.75-2.85a1.57,1.57,0,0,0,.57-.08,2,2,0,0,0,.5-.25,2.47,2.47,0,0,0,.43-.38,2.73,2.73,0,0,0,.33-.46l0-.43q0-.22,0-.47a4,4,0,0,0,0-.52,2.94,2.94,0,0,0-.12-.51,1.6,1.6,0,0,0-.22-.44,1.12,1.12,0,0,0-.35-.31,1.07,1.07,0,0,0-.5-.13,1.4,1.4,0,0,0-.75.16,1.79,1.79,0,0,0-.55.47,2.41,2.41,0,0,0-.36.66,3,3,0,0,0-.17.74,2.93,2.93,0,0,0,0,.65,2,2,0,0,0,.17.63,1.27,1.27,0,0,0,.38.48A1,1,0,0,0,146.84,23.06Z"/></g></g></svg>