<svg xmlns="http://www.w3.org/2000/svg" xmlns:xlink="http://www.w3.org/1999/xlink" viewBox="0 0 162 48"><defs><style>.cls-1{fill:#a6a6a6;}.cls-2{fill:url(#linear-gradient);}.cls-3{fill:url(#linear-gradient-2);}.cls-4{fill:url(#linear-gradient-3);}.cls-5{fill:url(#linear-gradient-4);}.cls-6{opacity:0.2;}.cls-6,.cls-7,.cls-8{isolation:isolate;}.cls-7{opacity:0.12;}.cls-8,.cls-9{fill:#fff;}.cls-8{opacity:0.25;}</style><linearGradient id="linear-gradient" x1="26.16" y1="-414.45" x2="6.02" y2="-434.59" gradientTransform="matrix(1, 0, 0, -1, 0, -404)" gradientUnits="userSpaceOnUse"><stop offset="0" stop-color="#00a0ff"/><stop offset="0.01" stop-color="#00a1ff"/><stop offset="0.26" stop-color="#00beff"/><stop offset="0.51" stop-color="#00d2ff"/><stop offset="0.76" stop-color="#00dfff"/><stop offset="1" stop-color="#00e3ff"/></linearGradient><linearGradient id="linear-gradient-2" x1="40.6" y1="-428" x2="11.56" y2="-428" gradientTransform="matrix(1, 0, 0, -1, 0, -404)" gradientUnits="userSpaceOnUse"><stop offset="0" stop-color="#ffe000"/><stop offset="0.41" stop-color="#ffbd00"/><stop offset="0.78" stop-color="orange"/><stop offset="1" stop-color="#ff9c00"/></linearGradient><linearGradient id="linear-gradient-3" x1="29.79" y1="-430.76" x2="2.48" y2="-458.07" gradientTransform="matrix(1, 0, 0, -1, 0, -404)" gradientUnits="userSpaceOnUse"><stop offset="0" stop-color="#ff3a44"/><stop offset="1" stop-color="#c31162"/></linearGradient><linearGradient id="linear-gradient-4" x1="8.76" y1="-404.21" x2="20.95" y2="-416.41" gradientTransform="matrix(1, 0, 0, -1, 0, -404)" gradientUnits="userSpaceOnUse"><stop offset="0" stop-color="#32a071"/><stop offset="0.07" stop-color="#2da771"/><stop offset="0.48" stop-color="#15cf74"/><stop offset="0.8" stop-color="#06e775"/><stop offset="1" stop-color="#00f076"/></linearGradient></defs><title>playstore-get-pro-v3</title><g id="Layer_2" data-name="Layer 2"><g id="Layer_1-2" data-name="Layer 1"><path d="M5.57,47.5A5.31,5.31,0,0,1,.5,42V6A5.31,5.31,0,0,1,5.57.5H156.43A5.31,5.31,0,0,1,161.5,6V42a5.31,5.31,0,0,1-5.07,5.5Z"/><path class="cls-1" d="M156.43,1A4.81,4.81,0,0,1,161,6V42a4.81,4.81,0,0,1-4.57,5H5.57A4.81,4.81,0,0,1,1,42V6A4.81,4.81,0,0,1,5.57,1H156.43m0-1H5.57A5.82,5.82,0,0,0,0,6V42a5.82,5.82,0,0,0,5.57,6H156.43A5.82,5.82,0,0,0,162,42V6a5.82,5.82,0,0,0-5.57-6Z"/><path class="cls-2" d="M12.52,9A2.4,2.4,0,0,0,12,10.73V37.27A2.4,2.4,0,0,0,12.52,39l.09.09L27.48,24.18v-.35L12.61,9Z"/><path class="cls-3" d="M32.43,29.13l-5-5v-.35l5-5,.11.06,5.87,3.34c1.68,1,1.68,2.51,0,3.47l-5.87,3.34Z"/><path class="cls-4" d="M32.55,29.07,27.48,24l-15,15A2,2,0,0,0,15,39l17.53-10"/><path class="cls-5" d="M32.55,18.93,15,9A2,2,0,0,0,12.52,9l15,15Z"/><path class="cls-6" d="M32.43,29,15,38.85a2,2,0,0,1-2.4,0h0l-.09.09h0l.09.09h0A2,2,0,0,0,15,39l17.53-10Z"/><path class="cls-7" d="M12.52,38.78A2.4,2.4,0,0,1,12,37.1v.18A2.4,2.4,0,0,0,12.52,39l.09-.09Z"/><path class="cls-7" d="M38.42,25.56l-6,3.4.11.11,5.87-3.34A2.11,2.11,0,0,0,39.68,24h0A2.23,2.23,0,0,1,38.42,25.56Z"/><path class="cls-8" d="M15,9.15l23.4,13.3A2.23,2.23,0,0,1,39.68,24h0a2.1,2.1,0,0,0-1.26-1.73L15,9c-1.68-1-3-.16-3,1.76v.18C12,9,13.34,8.2,15,9.15Z"/><path class="cls-9" d="M69,28.85a5.13,5.13,0,0,1-.59.68,4.24,4.24,0,0,1-1,.7,6.79,6.79,0,0,1-1.52.55,9,9,0,0,1-2.16.23,6.39,6.39,0,0,1-2.51-.48,5.53,5.53,0,0,1-2-1.39,6.4,6.4,0,0,1-1.29-2.23,9,9,0,0,1-.46-3V22.76a10.38,10.38,0,0,1,.39-3A6.2,6.2,0,0,1,59,17.55a5,5,0,0,1,1.88-1.39,6.42,6.42,0,0,1,2.56-.48,6.67,6.67,0,0,1,2.25.34,4.85,4.85,0,0,1,1.64,1,4.6,4.6,0,0,1,1.08,1.45A6.4,6.4,0,0,1,69,20.26H67a5.07,5.07,0,0,0-.35-1.14,3,3,0,0,0-.66-.94,3,3,0,0,0-1-.64,4.15,4.15,0,0,0-1.48-.24,4,4,0,0,0-1.8.38,3.31,3.31,0,0,0-1.25,1.09,5,5,0,0,0-.73,1.71,9.77,9.77,0,0,0-.24,2.27v1.19a8,8,0,0,0,.31,2.31A5.15,5.15,0,0,0,60.64,28,3.71,3.71,0,0,0,62,29a4,4,0,0,0,1.74.37,7.26,7.26,0,0,0,1.36-.11A4.86,4.86,0,0,0,66,29a2.52,2.52,0,0,0,.62-.35,3.74,3.74,0,0,0,.39-.35V25H63.57v-1.6H69Z"/><path class="cls-9" d="M76.52,31a5.28,5.28,0,0,1-2.1-.4,4.66,4.66,0,0,1-1.6-1.11,4.91,4.91,0,0,1-1-1.7,6.25,6.25,0,0,1-.36-2.15v-.43a6.79,6.79,0,0,1,.41-2.42A5.44,5.44,0,0,1,72.92,21a4.67,4.67,0,0,1,1.55-1.11,4.44,4.44,0,0,1,1.82-.38,4.69,4.69,0,0,1,2.05.42,3.89,3.89,0,0,1,1.42,1.14,4.85,4.85,0,0,1,.83,1.72A8.33,8.33,0,0,1,80.85,25v.85H73.33a4.77,4.77,0,0,0,.25,1.44,3.52,3.52,0,0,0,.66,1.16,3.06,3.06,0,0,0,2.38,1.07,3.29,3.29,0,0,0,1.7-.41A4.26,4.26,0,0,0,79.55,28l1.16.9a5,5,0,0,1-.65.79,4.42,4.42,0,0,1-.89.69,4.68,4.68,0,0,1-1.16.48A5.62,5.62,0,0,1,76.52,31Zm-.24-9.95a2.56,2.56,0,0,0-1.92.82,3.26,3.26,0,0,0-.63,1,5,5,0,0,0-.34,1.36H79V24.1a5.21,5.21,0,0,0-.18-1.1,3,3,0,0,0-.46-1,2.39,2.39,0,0,0-.81-.7A2.53,2.53,0,0,0,76.29,21.07Z"/><path class="cls-9" d="M85.69,17v2.69h2.07v1.47H85.69v6.88a1.94,1.94,0,0,0,.1.69,1,1,0,0,0,.27.41.87.87,0,0,0,.39.19,2.25,2.25,0,0,0,.46,0,2.91,2.91,0,0,0,.5,0l.41-.08v1.54l-.58.13a4.51,4.51,0,0,1-.87.07,3.25,3.25,0,0,1-1-.15,2,2,0,0,1-.82-.5,2.44,2.44,0,0,1-.55-.92,4.16,4.16,0,0,1-.21-1.4V21.18h-2V19.72h2V17Z"/><path class="cls-9" d="M97.44,25v5.84h-2V15.88H101a6.86,6.86,0,0,1,2.25.34,4.61,4.61,0,0,1,1.64.95,4,4,0,0,1,1,1.45,4.76,4.76,0,0,1,.34,1.83,5.06,5.06,0,0,1-.34,1.92,3.67,3.67,0,0,1-1,1.42,4.48,4.48,0,0,1-1.64.88A7.56,7.56,0,0,1,101,25Zm0-1.61H101a4.53,4.53,0,0,0,1.48-.21,2.7,2.7,0,0,0,1-.6,2.34,2.34,0,0,0,.58-.91,3.5,3.5,0,0,0,.18-1.16,3.41,3.41,0,0,0-.18-1.11,2.55,2.55,0,0,0-.58-.95,2.84,2.84,0,0,0-1-.66A4,4,0,0,0,101,17.5H97.44Z"/><path class="cls-9" d="M113.68,21.42l-.46-.06-.48,0a2.75,2.75,0,0,0-1.6.43,2.61,2.61,0,0,0-.93,1.16v7.88h-1.9V19.72h1.85l0,1.28a3.35,3.35,0,0,1,1.08-1.09,2.93,2.93,0,0,1,1.57-.4,2.87,2.87,0,0,1,.47,0,1.54,1.54,0,0,1,.37.1Z"/><path class="cls-9" d="M114.73,25.16a6.85,6.85,0,0,1,.35-2.24,5.4,5.4,0,0,1,1-1.79,4.59,4.59,0,0,1,1.58-1.19,4.93,4.93,0,0,1,2.09-.43,5,5,0,0,1,2.12.43,4.63,4.63,0,0,1,1.59,1.19,5.3,5.3,0,0,1,1,1.79,7,7,0,0,1,.35,2.24v.23a7,7,0,0,1-.35,2.24,5.25,5.25,0,0,1-1,1.78,4.62,4.62,0,0,1-1.59,1.18,5.4,5.4,0,0,1-4.2,0,4.62,4.62,0,0,1-1.59-1.18,5.31,5.31,0,0,1-1-1.78,6.85,6.85,0,0,1-.35-2.24Zm1.91.23a6.13,6.13,0,0,0,.2,1.57,4,4,0,0,0,.59,1.3,2.92,2.92,0,0,0,1,.89,3.05,3.05,0,0,0,2.75,0,2.87,2.87,0,0,0,1-.89,4.14,4.14,0,0,0,.59-1.3,6,6,0,0,0,.2-1.57v-.23a6,6,0,0,0-.2-1.56,4.08,4.08,0,0,0-.59-1.3,3,3,0,0,0-1-.89,2.79,2.79,0,0,0-1.38-.33,2.72,2.72,0,0,0-1.36.33,3,3,0,0,0-1,.89,4,4,0,0,0-.59,1.3,6.15,6.15,0,0,0-.2,1.56Z"/></g></g></svg>