<svg xmlns="http://www.w3.org/2000/svg" xmlns:xlink="http://www.w3.org/1999/xlink" viewBox="0 0 174.4 48"><defs><style>.cls-1{fill:#a6a6a6;}.cls-2{fill:url(#linear-gradient);}.cls-3{fill:url(#linear-gradient-2);}.cls-4{fill:url(#linear-gradient-3);}.cls-5{fill:url(#linear-gradient-4);}.cls-6{opacity:0.2;}.cls-6,.cls-7,.cls-8{isolation:isolate;}.cls-7{opacity:0.12;}.cls-8,.cls-9{fill:#fff;}.cls-8{opacity:0.25;}</style><linearGradient id="linear-gradient" x1="26.16" y1="-490.45" x2="6.02" y2="-510.59" gradientTransform="matrix(1, 0, 0, -1, 0, -480)" gradientUnits="userSpaceOnUse"><stop offset="0" stop-color="#00a0ff"/><stop offset="0.01" stop-color="#00a1ff"/><stop offset="0.26" stop-color="#00beff"/><stop offset="0.51" stop-color="#00d2ff"/><stop offset="0.76" stop-color="#00dfff"/><stop offset="1" stop-color="#00e3ff"/></linearGradient><linearGradient id="linear-gradient-2" x1="40.6" y1="-504" x2="11.56" y2="-504" gradientTransform="matrix(1, 0, 0, -1, 0, -480)" gradientUnits="userSpaceOnUse"><stop offset="0" stop-color="#ffe000"/><stop offset="0.41" stop-color="#ffbd00"/><stop offset="0.78" stop-color="orange"/><stop offset="1" stop-color="#ff9c00"/></linearGradient><linearGradient id="linear-gradient-3" x1="29.79" y1="-506.76" x2="2.48" y2="-534.07" gradientTransform="matrix(1, 0, 0, -1, 0, -480)" gradientUnits="userSpaceOnUse"><stop offset="0" stop-color="#ff3a44"/><stop offset="1" stop-color="#c31162"/></linearGradient><linearGradient id="linear-gradient-4" x1="8.76" y1="-480.21" x2="20.95" y2="-492.41" gradientTransform="matrix(1, 0, 0, -1, 0, -480)" gradientUnits="userSpaceOnUse"><stop offset="0" stop-color="#32a071"/><stop offset="0.07" stop-color="#2da771"/><stop offset="0.48" stop-color="#15cf74"/><stop offset="0.8" stop-color="#06e775"/><stop offset="1" stop-color="#00f076"/></linearGradient></defs><title>playstore-pro</title><g id="Layer_2" data-name="Layer 2"><g id="Layer_1-2" data-name="Layer 1"><rect width="174.4" height="48" rx="6" ry="6"/><path class="cls-1" d="M168.4,1a5,5,0,0,1,5,5V42a5,5,0,0,1-5,5H6a5,5,0,0,1-5-5V6A5,5,0,0,1,6,1H168.4m0-1H6A6,6,0,0,0,0,6V42a6,6,0,0,0,6,6H168.4a6,6,0,0,0,6-6V6a6,6,0,0,0-6-6Z"/><path class="cls-2" d="M12.52,9A2.4,2.4,0,0,0,12,10.73V37.27A2.4,2.4,0,0,0,12.52,39l.09.09L27.48,24.18v-.35L12.61,9Z"/><path class="cls-3" d="M32.43,29.13l-5-5v-.35l5-5,.11.06,5.87,3.34c1.68,1,1.68,2.51,0,3.47l-5.87,3.34Z"/><path class="cls-4" d="M32.55,29.07,27.48,24l-15,15A2,2,0,0,0,15,39l17.53-10"/><path class="cls-5" d="M32.55,18.93,15,9A2,2,0,0,0,12.52,9l15,15Z"/><path class="cls-6" d="M32.43,29,15,38.85a2,2,0,0,1-2.4,0h0l-.09.09h0l.09.09h0A2,2,0,0,0,15,39l17.53-10Z"/><path class="cls-7" d="M12.52,38.78A2.4,2.4,0,0,1,12,37.1v.18A2.4,2.4,0,0,0,12.52,39l.09-.09Z"/><path class="cls-7" d="M38.42,25.56l-6,3.4.11.11,5.87-3.34A2.11,2.11,0,0,0,39.68,24h0A2.23,2.23,0,0,1,38.42,25.56Z"/><path class="cls-8" d="M15,9.15l23.4,13.3A2.23,2.23,0,0,1,39.68,24h0a2.1,2.1,0,0,0-1.26-1.73L15,9c-1.68-1-3-.16-3,1.76v.18C12,9,13.34,8.2,15,9.15Z"/><path class="cls-9" d="M60.64,28.37a3.81,3.81,0,0,1-.55.52,4.22,4.22,0,0,1-.88.52,6.5,6.5,0,0,1-1.25.4,7.74,7.74,0,0,1-1.66.16,5.38,5.38,0,0,1-2-.36,4.22,4.22,0,0,1-1.56-1.07,4.86,4.86,0,0,1-1-1.73,7.12,7.12,0,0,1-.36-2.34v-.67a7.47,7.47,0,0,1,.34-2.35,4.9,4.9,0,0,1,1-1.73,4.06,4.06,0,0,1,1.5-1.07,5.05,5.05,0,0,1,2-.37,5.94,5.94,0,0,1,1.92.28,3.77,3.77,0,0,1,1.35.78,3.52,3.52,0,0,1,.85,1.2,5.25,5.25,0,0,1,.4,1.52H58.36a3.37,3.37,0,0,0-.22-.78,1.77,1.77,0,0,0-.41-.59,1.74,1.74,0,0,0-.64-.38,2.73,2.73,0,0,0-.9-.13,2.08,2.08,0,0,0-1.83.91,4.78,4.78,0,0,0-.62,2.7v.69a4.5,4.5,0,0,0,.68,2.7,2.33,2.33,0,0,0,2,.91,4.34,4.34,0,0,0,.73-.05,3.1,3.1,0,0,0,.54-.14,1.8,1.8,0,0,0,.37-.18,1.58,1.58,0,0,0,.24-.19v-2H56.16V23.83h4.48Z"/><path class="cls-9" d="M69.5,24.88H65v3h5.28v1.88H62.66V18.44h7.61v1.9H65V23h4.5Z"/><path class="cls-9" d="M80.53,20.33H77v9.48H74.7V20.33H71.27v-1.9h9.27Z"/><path class="cls-9" d="M88.2,25.8v4H85.85V18.44h4.44a5.37,5.37,0,0,1,1.8.28,3.89,3.89,0,0,1,1.34.79,3.35,3.35,0,0,1,.84,1.2,3.86,3.86,0,0,1,.29,1.5,3.71,3.71,0,0,1-.29,1.49,3.08,3.08,0,0,1-.84,1.13,3.86,3.86,0,0,1-1.34.72,5.91,5.91,0,0,1-1.8.25Zm0-1.9h2.09a2.67,2.67,0,0,0,.86-.12,1.57,1.57,0,0,0,.59-.35,1.36,1.36,0,0,0,.34-.54,2,2,0,0,0,.11-.68,2.28,2.28,0,0,0-.11-.71,1.69,1.69,0,0,0-.34-.6,1.64,1.64,0,0,0-.59-.42,2.17,2.17,0,0,0-.86-.16H88.2Z"/><path class="cls-9" d="M100.23,25.65H98.36v4.16H96V18.44h4.23a6.44,6.44,0,0,1,1.77.22,3.7,3.7,0,0,1,1.32.66,2.88,2.88,0,0,1,.83,1.07,3.58,3.58,0,0,1,.29,1.48,4.11,4.11,0,0,1-.14,1.12,2.92,2.92,0,0,1-1,1.56,4.21,4.21,0,0,1-.84.5l2.46,4.65v.11h-2.52Zm-1.87-1.9h1.89a2.45,2.45,0,0,0,.81-.12,1.56,1.56,0,0,0,.58-.34,1.44,1.44,0,0,0,.35-.53,1.94,1.94,0,0,0,.12-.69,1.72,1.72,0,0,0-.46-1.27,1.9,1.9,0,0,0-1.4-.46H98.36Z"/><path class="cls-9" d="M115.45,24.38a7.25,7.25,0,0,1-.35,2.34,5.06,5.06,0,0,1-1,1.75,4.3,4.3,0,0,1-1.53,1.11,5.17,5.17,0,0,1-3.92,0,4.38,4.38,0,0,1-1.54-1.11,5.09,5.09,0,0,1-1-1.75,7.12,7.12,0,0,1-.36-2.34v-.5a7.18,7.18,0,0,1,.36-2.34,5.17,5.17,0,0,1,1-1.77,4.3,4.3,0,0,1,1.53-1.11,5.17,5.17,0,0,1,3.92,0,4.3,4.3,0,0,1,1.53,1.11,5.17,5.17,0,0,1,1,1.77,7.18,7.18,0,0,1,.36,2.34Zm-2.37-.52a4.79,4.79,0,0,0-.64-2.72,2.26,2.26,0,0,0-3.66,0,4.79,4.79,0,0,0-.64,2.72v.52a6.62,6.62,0,0,0,.17,1.57,3.52,3.52,0,0,0,.48,1.15,2.11,2.11,0,0,0,.78.7,2.26,2.26,0,0,0,1.05.24,2.06,2.06,0,0,0,1.82-.94,4.87,4.87,0,0,0,.63-2.73Z"/><path class="cls-9" d="M121.17,25.25q.11-.74.3-1.53a15.38,15.38,0,0,1,.48-1.57,14.31,14.31,0,0,1,.66-1.54,10.31,10.31,0,0,1,.86-1.42A8.19,8.19,0,0,1,124.54,18a6.18,6.18,0,0,1,1.29-.92l.16.64a6.68,6.68,0,0,0-1.55,1.48A10.2,10.2,0,0,0,123.32,21a13,13,0,0,0-.76,2.08,20.33,20.33,0,0,0-.46,2.08l0,.16q-.08.56-.13,1.21t0,1.36a13,13,0,0,0,.1,1.41,8,8,0,0,0,.29,1.36,5.63,5.63,0,0,0,.53,1.21,3.68,3.68,0,0,0,.81,1l-.27.6a4.53,4.53,0,0,1-1-1,6.15,6.15,0,0,1-.7-1.27,8.21,8.21,0,0,1-.43-1.44,11.46,11.46,0,0,1-.2-1.51,12.93,12.93,0,0,1,0-1.49q0-.73.13-1.38Z"/><path class="cls-9" d="M127.84,23.62l.89,0a3.77,3.77,0,0,0,1-.14,3.06,3.06,0,0,0,.92-.43,2.54,2.54,0,0,0,.69-.71,2.28,2.28,0,0,0,.34-1,2.67,2.67,0,0,0,0-.91,1.74,1.74,0,0,0-.34-.71,1.67,1.67,0,0,0-.63-.47,2.4,2.4,0,0,0-.9-.18,2.73,2.73,0,0,0-1,.15,2.67,2.67,0,0,0-.83.48,2.7,2.7,0,0,0-.61.75,3.22,3.22,0,0,0-.35,1h-.91a3.58,3.58,0,0,1,1.26-2.3,3.64,3.64,0,0,1,1.14-.64,3.84,3.84,0,0,1,1.36-.21,3.4,3.4,0,0,1,1.23.24,2.55,2.55,0,0,1,.92.63,2.49,2.49,0,0,1,.54,1,3.27,3.27,0,0,1,.11,1.25,2.53,2.53,0,0,1-.25.91,2.94,2.94,0,0,1-.53.74,3.71,3.71,0,0,1-.72.57,5.34,5.34,0,0,1-.84.42,2.34,2.34,0,0,1,1.28,1,2.72,2.72,0,0,1,.33,1.63,3.62,3.62,0,0,1-.4,1.38,3.48,3.48,0,0,1-.85,1.05,3.68,3.68,0,0,1-1.19.66,4.13,4.13,0,0,1-1.42.21,3.66,3.66,0,0,1-1.3-.25,2.88,2.88,0,0,1-1-.66,2.72,2.72,0,0,1-.62-1,3.13,3.13,0,0,1-.14-1.31h.92a2.59,2.59,0,0,0,.09,1A2,2,0,0,0,127.15,29a2.62,2.62,0,0,0,1,.2A3.11,3.11,0,0,0,129.2,29a2.64,2.64,0,0,0,.88-.49,2.57,2.57,0,0,0,.62-.79,3,3,0,0,0,.3-1.05,2.38,2.38,0,0,0-.09-1,1.64,1.64,0,0,0-.46-.7,2,2,0,0,0-.76-.41,3.79,3.79,0,0,0-1-.15h-1Z"/><path class="cls-9" d="M133.64,29.25a.71.71,0,0,1,.22-.46.69.69,0,0,1,.47-.2.58.58,0,0,1,.46.19.6.6,0,0,1,.16.48.62.62,0,0,1-.21.45.72.72,0,0,1-.47.18.6.6,0,0,1-.46-.17A.57.57,0,0,1,133.64,29.25Z"/><path class="cls-9" d="M137.82,29.09a5.21,5.21,0,0,0,1.94-.33,4.16,4.16,0,0,0,1.43-.93,5.2,5.2,0,0,0,1-1.43,9.24,9.24,0,0,0,.64-1.84,4.76,4.76,0,0,1-.6.63,4,4,0,0,1-.7.49,3.47,3.47,0,0,1-.79.32,3,3,0,0,1-.87.09,2.46,2.46,0,0,1-1.29-.36,2.7,2.7,0,0,1-.86-.87,3.43,3.43,0,0,1-.45-1.2,4.86,4.86,0,0,1-.06-1.34,5.45,5.45,0,0,1,.38-1.51,4.65,4.65,0,0,1,.79-1.3,3.79,3.79,0,0,1,1.18-.91,3.21,3.21,0,0,1,1.53-.33,3.11,3.11,0,0,1,1.1.21A2.6,2.6,0,0,1,143,19a2.68,2.68,0,0,1,.56.77,4.12,4.12,0,0,1,.32.94,5.61,5.61,0,0,1,.13,1,7.24,7.24,0,0,1,0,1.07l-.12.91a10.7,10.7,0,0,1-.62,2.43,6.46,6.46,0,0,1-1.18,2,5.3,5.3,0,0,1-1.79,1.31,5.91,5.91,0,0,1-2.47.48h-.23l.09-.81Zm2.2-3.81a2.61,2.61,0,0,0,.94-.14,3.13,3.13,0,0,0,.82-.43,3.54,3.54,0,0,0,.68-.64,4.24,4.24,0,0,0,.51-.8l.06-.55a6.36,6.36,0,0,0,0-.79,5.19,5.19,0,0,0-.06-.81,4,4,0,0,0-.2-.77,2.14,2.14,0,0,0-.37-.65,1.77,1.77,0,0,0-.59-.45,2,2,0,0,0-.82-.18,2.22,2.22,0,0,0-1.16.27,3,3,0,0,0-.88.75,3.82,3.82,0,0,0-.59,1,4.72,4.72,0,0,0-.28,1.15,4.21,4.21,0,0,0,0,1,2.94,2.94,0,0,0,.29,1A2,2,0,0,0,139,25,1.71,1.71,0,0,0,140,25.28Z"/><path class="cls-9" d="M146.36,29.09a5.21,5.21,0,0,0,1.94-.33,4.16,4.16,0,0,0,1.43-.93,5.2,5.2,0,0,0,1-1.43,9.24,9.24,0,0,0,.64-1.84,4.76,4.76,0,0,1-.6.63,4,4,0,0,1-.7.49,3.47,3.47,0,0,1-.79.32,3,3,0,0,1-.87.09,2.46,2.46,0,0,1-1.29-.36,2.7,2.7,0,0,1-.86-.87,3.43,3.43,0,0,1-.45-1.2,4.86,4.86,0,0,1-.06-1.34,5.45,5.45,0,0,1,.38-1.51,4.65,4.65,0,0,1,.79-1.3,3.79,3.79,0,0,1,1.18-.91,3.21,3.21,0,0,1,1.53-.33,3.11,3.11,0,0,1,1.1.21,2.6,2.6,0,0,1,.82.52,2.68,2.68,0,0,1,.56.77,4.12,4.12,0,0,1,.32.94,5.61,5.61,0,0,1,.13,1,7.24,7.24,0,0,1,0,1.07l-.12.91a10.7,10.7,0,0,1-.62,2.43,6.46,6.46,0,0,1-1.18,2,5.3,5.3,0,0,1-1.79,1.31,5.91,5.91,0,0,1-2.47.48h-.23l.09-.81Zm2.2-3.81a2.61,2.61,0,0,0,.94-.14,3.13,3.13,0,0,0,.82-.43,3.54,3.54,0,0,0,.68-.64,4.24,4.24,0,0,0,.51-.8l.06-.55a6.36,6.36,0,0,0,0-.79,5.19,5.19,0,0,0-.06-.81,4,4,0,0,0-.2-.77,2.14,2.14,0,0,0-.37-.65,1.77,1.77,0,0,0-.59-.45,2,2,0,0,0-.82-.18,2.22,2.22,0,0,0-1.16.27,3,3,0,0,0-.88.75,3.82,3.82,0,0,0-.59,1,4.72,4.72,0,0,0-.28,1.15,4.21,4.21,0,0,0,0,1,2.94,2.94,0,0,0,.29,1,2,2,0,0,0,.61.71A1.71,1.71,0,0,0,148.56,25.28Z"/><path class="cls-9" d="M156.49,25.3q-.12.75-.31,1.54a15.56,15.56,0,0,1-.47,1.57,13.16,13.16,0,0,1-.66,1.53,10.42,10.42,0,0,1-.86,1.41,8.26,8.26,0,0,1-1.07,1.21,6.31,6.31,0,0,1-1.3.93l-.16-.61a6.51,6.51,0,0,0,1.09-.93,8,8,0,0,0,.89-1.14,10.49,10.49,0,0,0,.71-1.29,13.9,13.9,0,0,0,.55-1.38q.23-.7.4-1.41t.27-1.38l0-.16q.08-.55.13-1.21t0-1.36a13.08,13.08,0,0,0-.1-1.41,8.13,8.13,0,0,0-.29-1.36,5.86,5.86,0,0,0-.52-1.21,3.47,3.47,0,0,0-.81-1l.27-.59a4.3,4.3,0,0,1,1,1,6.22,6.22,0,0,1,.69,1.28,8.34,8.34,0,0,1,.43,1.44,11.92,11.92,0,0,1,.21,1.52,13.19,13.19,0,0,1,0,1.49,13.35,13.35,0,0,1-.12,1.37Z"/></g></g></svg>