<svg xmlns="http://www.w3.org/2000/svg" xmlns:xlink="http://www.w3.org/1999/xlink" viewBox="0 0 162 48"><defs><style>.cls-1{fill:#a6a6a6;}.cls-2{fill:url(#linear-gradient);}.cls-3{fill:url(#linear-gradient-2);}.cls-4{fill:url(#linear-gradient-3);}.cls-5{fill:url(#linear-gradient-4);}.cls-6{opacity:0.2;}.cls-6,.cls-7,.cls-8{isolation:isolate;}.cls-7{opacity:0.12;}.cls-8,.cls-9{fill:#fff;}.cls-8{opacity:0.25;}</style><linearGradient id="linear-gradient" x1="26.16" y1="-274.45" x2="6.02" y2="-294.59" gradientTransform="matrix(1, 0, 0, -1, 0, -264)" gradientUnits="userSpaceOnUse"><stop offset="0" stop-color="#00a0ff"/><stop offset="0.01" stop-color="#00a1ff"/><stop offset="0.26" stop-color="#00beff"/><stop offset="0.51" stop-color="#00d2ff"/><stop offset="0.76" stop-color="#00dfff"/><stop offset="1" stop-color="#00e3ff"/></linearGradient><linearGradient id="linear-gradient-2" x1="40.6" y1="-288" x2="11.56" y2="-288" gradientTransform="matrix(1, 0, 0, -1, 0, -264)" gradientUnits="userSpaceOnUse"><stop offset="0" stop-color="#ffe000"/><stop offset="0.41" stop-color="#ffbd00"/><stop offset="0.78" stop-color="orange"/><stop offset="1" stop-color="#ff9c00"/></linearGradient><linearGradient id="linear-gradient-3" x1="29.79" y1="-290.76" x2="2.48" y2="-318.07" gradientTransform="matrix(1, 0, 0, -1, 0, -264)" gradientUnits="userSpaceOnUse"><stop offset="0" stop-color="#ff3a44"/><stop offset="1" stop-color="#c31162"/></linearGradient><linearGradient id="linear-gradient-4" x1="8.76" y1="-264.21" x2="20.95" y2="-276.41" gradientTransform="matrix(1, 0, 0, -1, 0, -264)" gradientUnits="userSpaceOnUse"><stop offset="0" stop-color="#32a071"/><stop offset="0.07" stop-color="#2da771"/><stop offset="0.48" stop-color="#15cf74"/><stop offset="0.8" stop-color="#06e775"/><stop offset="1" stop-color="#00f076"/></linearGradient></defs><title>playstore-2-no-price</title><g id="Layer_2" data-name="Layer 2"><g id="Layer_1-2" data-name="Layer 1"><path d="M5.57,47.5A5.31,5.31,0,0,1,.5,42V6A5.31,5.31,0,0,1,5.57.5H156.43A5.31,5.31,0,0,1,161.5,6V42a5.31,5.31,0,0,1-5.07,5.5Z"/><path class="cls-1" d="M156.43,1A4.81,4.81,0,0,1,161,6V42a4.81,4.81,0,0,1-4.57,5H5.57A4.81,4.81,0,0,1,1,42V6A4.81,4.81,0,0,1,5.57,1H156.43m0-1H5.57A5.82,5.82,0,0,0,0,6V42a5.82,5.82,0,0,0,5.57,6H156.43A5.82,5.82,0,0,0,162,42V6a5.82,5.82,0,0,0-5.57-6Z"/><path class="cls-2" d="M12.52,9A2.4,2.4,0,0,0,12,10.73V37.27A2.4,2.4,0,0,0,12.52,39l.09.09L27.48,24.18v-.35L12.61,9Z"/><path class="cls-3" d="M32.43,29.13l-5-5v-.35l5-5,.11.06,5.87,3.34c1.68,1,1.68,2.51,0,3.47l-5.87,3.34Z"/><path class="cls-4" d="M32.55,29.07,27.48,24l-15,15A2,2,0,0,0,15,39l17.53-10"/><path class="cls-5" d="M32.55,18.93,15,9A2,2,0,0,0,12.52,9l15,15Z"/><path class="cls-6" d="M32.43,29,15,38.85a2,2,0,0,1-2.4,0h0l-.09.09h0l.09.09h0A2,2,0,0,0,15,39l17.53-10Z"/><path class="cls-7" d="M12.52,38.78A2.4,2.4,0,0,1,12,37.1v.18A2.4,2.4,0,0,0,12.52,39l.09-.09Z"/><path class="cls-7" d="M38.42,25.56l-6,3.4.11.11,5.87-3.34A2.11,2.11,0,0,0,39.68,24h0A2.23,2.23,0,0,1,38.42,25.56Z"/><path class="cls-8" d="M15,9.15l23.4,13.3A2.23,2.23,0,0,1,39.68,24h0a2.1,2.1,0,0,0-1.26-1.73L15,9c-1.68-1-3-.16-3,1.76v.18C12,9,13.34,8.2,15,9.15Z"/><path class="cls-9" d="M72.64,28.37a3.81,3.81,0,0,1-.55.52,4.22,4.22,0,0,1-.88.52,6.5,6.5,0,0,1-1.25.4,7.74,7.74,0,0,1-1.66.16,5.38,5.38,0,0,1-2-.36,4.22,4.22,0,0,1-1.56-1.07,4.86,4.86,0,0,1-1-1.73,7.12,7.12,0,0,1-.36-2.34v-.67a7.47,7.47,0,0,1,.34-2.35,4.9,4.9,0,0,1,1-1.73,4.06,4.06,0,0,1,1.5-1.07,5.05,5.05,0,0,1,2-.37,5.94,5.94,0,0,1,1.92.28,3.77,3.77,0,0,1,1.35.78,3.52,3.52,0,0,1,.85,1.2,5.25,5.25,0,0,1,.4,1.52H70.36a3.37,3.37,0,0,0-.22-.78,1.77,1.77,0,0,0-.41-.59,1.74,1.74,0,0,0-.64-.38,2.73,2.73,0,0,0-.9-.13,2.08,2.08,0,0,0-1.83.91,4.78,4.78,0,0,0-.62,2.7v.69a4.5,4.5,0,0,0,.68,2.7,2.33,2.33,0,0,0,2,.91,4.34,4.34,0,0,0,.73-.05,3.1,3.1,0,0,0,.54-.14,1.8,1.8,0,0,0,.37-.18,1.58,1.58,0,0,0,.24-.19v-2H68.16V23.83h4.48Z"/><path class="cls-9" d="M81.5,24.88H77v3h5.28v1.88H74.66V18.44h7.61v1.9H77V23h4.5Z"/><path class="cls-9" d="M92.53,20.33H89v9.48H86.71V20.33H83.27v-1.9h9.27Z"/><path class="cls-9" d="M100.2,25.8v4H97.85V18.44h4.44a5.37,5.37,0,0,1,1.8.28,3.89,3.89,0,0,1,1.34.79,3.35,3.35,0,0,1,.84,1.2,3.86,3.86,0,0,1,.29,1.5,3.71,3.71,0,0,1-.29,1.49,3.08,3.08,0,0,1-.84,1.13,3.86,3.86,0,0,1-1.34.72,5.91,5.91,0,0,1-1.8.25Zm0-1.9h2.09a2.67,2.67,0,0,0,.86-.12,1.57,1.57,0,0,0,.59-.35,1.36,1.36,0,0,0,.34-.54,2,2,0,0,0,.11-.68,2.28,2.28,0,0,0-.11-.71,1.69,1.69,0,0,0-.34-.6,1.64,1.64,0,0,0-.59-.42,2.17,2.17,0,0,0-.86-.16H100.2Z"/><path class="cls-9" d="M112.23,25.65h-1.87v4.16H108V18.44h4.23a6.44,6.44,0,0,1,1.77.22,3.7,3.7,0,0,1,1.32.66,2.88,2.88,0,0,1,.83,1.07,3.58,3.58,0,0,1,.29,1.48,4.11,4.11,0,0,1-.14,1.12,2.92,2.92,0,0,1-1,1.56,4.21,4.21,0,0,1-.84.5l2.46,4.65v.11h-2.52Zm-1.87-1.9h1.89a2.45,2.45,0,0,0,.81-.12,1.56,1.56,0,0,0,.58-.34,1.44,1.44,0,0,0,.35-.53,1.94,1.94,0,0,0,.12-.69,1.72,1.72,0,0,0-.46-1.27,1.9,1.9,0,0,0-1.4-.46h-1.88Z"/><path class="cls-9" d="M127.46,24.38a7.25,7.25,0,0,1-.35,2.34,5.06,5.06,0,0,1-1,1.75,4.3,4.3,0,0,1-1.53,1.11,5.17,5.17,0,0,1-3.92,0,4.38,4.38,0,0,1-1.54-1.11,5.09,5.09,0,0,1-1-1.75,7.12,7.12,0,0,1-.36-2.34v-.5a7.18,7.18,0,0,1,.36-2.34,5.17,5.17,0,0,1,1-1.77,4.3,4.3,0,0,1,1.53-1.11,5.17,5.17,0,0,1,3.92,0,4.3,4.3,0,0,1,1.53,1.11,5.17,5.17,0,0,1,1,1.77,7.18,7.18,0,0,1,.36,2.34Zm-2.37-.52a4.79,4.79,0,0,0-.64-2.72,2.26,2.26,0,0,0-3.66,0,4.79,4.79,0,0,0-.64,2.72v.52a6.62,6.62,0,0,0,.17,1.57,3.52,3.52,0,0,0,.48,1.15,2.11,2.11,0,0,0,.78.7,2.26,2.26,0,0,0,1.05.24,2.06,2.06,0,0,0,1.82-.94,4.87,4.87,0,0,0,.63-2.73Z"/></g></g></svg>