<?xml version="1.0" encoding="UTF-8"?>
<svg width="135px" height="34px" viewBox="0 0 135 34" version="1.1" xmlns="http://www.w3.org/2000/svg" xmlns:xlink="http://www.w3.org/1999/xlink">
    <!-- Generator: Sketch 43.1 (39012) - http://www.bohemiancoding.com/sketch -->
    <title>Lifehacker</title>
    <desc>Created with Sketch.</desc>
    <defs></defs>
    <g id="Website" stroke="none" stroke-width="1" fill="none" fill-rule="evenodd">
        <g id="AL-Website-Desktop-v4-17-04-13" transform="translate(-283.000000, -1976.000000)" fill-rule="nonzero" fill="#87B827">
            <g id="Group-16" transform="translate(42.000000, 1698.000000)">
                <g id="Group-3" transform="translate(18.000000, 0.000000)">
                    <g id="Group-6" transform="translate(0.000000, 87.000000)">
                        <g id="Lifehacker" transform="translate(223.000000, 190.000000)">
                            <g id="g10" transform="translate(67.500000, 17.997736) scale(-1, 1) rotate(-180.000000) translate(-67.500000, -17.997736) translate(0.000000, 0.997736)">
                                <g id="g12" transform="translate(0.000000, 0.000000)">
                                    <polyline id="path14" points="5.17237676 0.375892511 0 0.375892511 0 33.2877344 5.17237676 32.9537657 5.17237676 0.375892511"></polyline>
                                    <path d="M13.6398389,0.375892511 L8.46743949,0.375892511 L8.46743949,23.848534 L13.6398389,23.5562265 L13.6398389,0.375892511 Z M11.0536279,30.9907091 C12.680457,30.9907091 14.0152383,29.6541551 14.0152383,28.0252936 C14.0152383,26.3962057 12.680457,25.0596517 11.0536279,25.0596517 C9.42682137,25.0596517 8.09204,26.3962057 8.09204,28.0252936 C8.09204,29.6541551 9.42682137,30.9907091 11.0536279,30.9907091 L11.0536279,30.9907091 Z" id="path16"></path>
                                    <path d="M25.9867079,19.1290923 L25.9867079,13.9500871 L22.1073688,13.9500871 L22.1073688,0.398534455 L16.9349694,0.398534455 L16.9349694,26.1457857 C16.9349694,30.0716726 20.1885146,33.6219295 24.0261552,33.6219295 C25.3191702,33.6219295 26.3620848,33.2458468 26.6124114,33.0789757 L26.4036928,28.1088424 L24.0261552,28.1088424 C22.9832406,28.1088424 22.1073688,27.2316934 22.1073688,26.1457857 L22.1073688,19.1290923 L25.9867079,19.1290923" id="path18"></path>
                                    <path d="M33.2513811,14.6183867 L37.1306523,14.6183867 L37.1306523,17.040622 C37.1306523,18.1267334 36.2546222,19.0037465 35.2117077,19.0037465 C34.1271851,19.0037465 33.2513811,18.1267334 33.2513811,17.040622 L33.2513811,14.6183867 Z M28.0788686,17.040622 C28.0788686,20.9668937 31.2489942,24.1827291 35.2117077,24.1827291 C39.1328131,24.1827291 42.3029386,20.9668937 42.3029386,17.040622 L42.3029386,12.0286237 C42.3029386,10.566973 41.1349738,9.4393815 39.7169086,9.4393815 L33.2513811,9.4393815 L33.2513811,7.18385889 C33.2513811,6.09820027 34.1271851,5.22082491 35.2117077,5.22082491 L40.1757276,5.22082491 L40.3426121,0.835274929 L35.6707529,0.125415091 C31.165552,-0.626457329 28.0788686,3.25797208 28.0788686,7.18385889 L28.0788686,17.040622 L28.0788686,17.040622 Z" id="path20"></path>
                                    <path d="M46.7260541,0.375892511 L46.7260541,33.0789757 L50.0632902,33.0789757 L50.0632902,23.1387091 C50.9809284,23.4310166 52.4408278,23.5562265 53.4419082,23.5562265 C56.9876368,23.5562265 59.7405513,20.3402553 59.7405513,16.7064722 L59.7405513,0.375892511 L56.4869835,0.375892511 L56.4869835,16.7064722 C56.4869835,18.5025444 55.0270841,19.9226019 53.2334158,19.9226019 L50.0632902,19.9226019 L50.0632902,0.375892511 L46.7260541,0.375892511" id="path22"></path>
                                    <path d="M71.9488927,6.68256623 L71.9488927,12.3211124 L68.736933,12.3211124 C66.9434908,12.3211124 65.5251994,10.9009417 65.5251994,9.10525432 L65.5251994,6.68256623 C65.5251994,4.88685623 66.9434908,3.42504699 68.736933,3.42504699 C70.5308274,3.42504699 71.9488927,4.88685623 71.9488927,6.68256623 Z M71.9488927,17.2495392 C71.9488927,19.1290923 71.0728625,20.6327439 68.6953249,20.3819164 L68.736933,20.3819164 C67.4020837,20.3402553 65.6920838,20.1731803 64.2737924,20.0896769 C64.2321843,21.3009303 64.1903502,21.7603354 64.1487421,22.6790776 C65.2748727,23.0968215 66.9016566,23.5145653 68.27834,23.5562265 C72.4495459,23.6397753 75.2026866,20.2566612 75.2026866,16.6231725 L75.2026866,6.68256623 C75.2026866,3.09089717 72.3244957,0.125415091 68.736933,0.125415091 C65.1498225,0.125415091 62.1881894,3.09089717 62.1881894,6.68256623 L62.1881894,8.72917162 C62.1881894,12.3211124 64.6491692,15.0358363 68.736933,15.0358363 C70.2805008,15.0358363 71.0728625,14.8687614 71.9488927,14.6183867 L71.9488927,17.2495392 L71.9488927,17.2495392 Z" id="path24"></path>
                                    <path d="M84.5477617,23.5562265 C88.1353244,23.5562265 91.0967314,20.6327439 91.0967314,16.9989608 L91.0967314,16.5812396 C89.8037163,16.5394199 88.7608018,16.5394199 87.8015556,16.4977587 L87.8015556,16.9989608 C87.8015556,18.7531002 86.34143,20.2148415 84.5477617,20.2148415 C82.7959276,20.2148415 81.37741,18.7531002 81.37741,16.9989608 L81.37741,6.55731099 C81.37741,4.71969075 82.7959276,3.34127179 84.5477617,3.34127179 C86.299822,3.34127179 87.7597214,4.67787108 87.8015556,6.43216896 C89.4281133,6.30666466 90.9716811,6.22318381 91.0967314,6.22318381 C90.929847,2.75665678 88.0100481,-7.10542736e-15 84.5477617,-7.10542736e-15 C80.9606512,-7.10542736e-15 78.0404001,2.92373169 78.0404001,6.55731099 L78.0404001,16.9989608 C78.0404001,20.6327439 80.9606512,23.5562265 84.5477617,23.5562265" id="path26"></path>
                                    <path d="M104.244193,0.375892511 L97.9039423,11.4441672 C97.2780126,12.5298485 97.2780126,12.6552622 98.0289925,13.9500871 L103.61849,23.2220314 L107.414545,23.2220314 L101.115676,12.5298485 L107.914972,0.375892511 L104.244193,0.375892511 Z M97.0695202,32.9954269 L97.0695202,0.375892511 L93.7325102,0.375892511 L93.7325102,32.9954269 L97.0695202,32.9954269 L97.0695202,32.9954269 Z" id="path28"></path>
                                    <path d="M111.954796,13.4488624 L118.378716,13.4488624 L118.378716,16.9573223 C118.378716,18.7531002 116.91859,20.2148415 115.166756,20.2148415 C113.373088,20.2148415 111.954796,18.7531002 111.954796,16.9573223 L111.954796,13.4488624 Z M108.617786,16.9573223 C108.617786,20.590811 111.537811,23.5562265 115.166756,23.5562265 C118.753866,23.5562265 121.674118,20.590811 121.674118,16.9573223 L121.674118,11.8198876 C121.674118,10.859122 120.923138,10.1492518 120.0055,10.1492518 L111.954796,10.1492518 L111.954796,6.59924387 C111.954796,4.80328481 113.373088,3.34127179 115.166756,3.34127179 L119.379796,3.34127179 C119.421404,2.25561545 119.463238,1.50338891 119.54668,0.751959364 L115.542133,0.125415091 C111.454369,-0.584621807 108.617786,2.96539287 108.617786,6.59924387 L108.617786,16.9573223 L108.617786,16.9573223 Z" id="path30"></path>
                                    <path d="M127.938163,0.375892511 L124.600927,0.375892511 L124.600927,16.6648336 C124.600927,20.2985941 127.437509,23.6814365 131.608715,23.5981141 C133.027007,23.5562265 133.903037,23.2220314 134.862509,22.7626264 C134.820675,21.7603354 134.779067,20.9249608 134.737459,20.1731803 L131.108288,20.2566612 C129.356228,20.2566612 127.938163,18.3771307 127.938163,16.6648336 L127.938163,0.375892511" id="path32"></path>
                                </g>
                            </g>
                        </g>
                    </g>
                </g>
            </g>
        </g>
    </g>
</svg>