<?xml version="1.0" encoding="UTF-8"?>
<svg width="233px" height="50px" viewBox="0 0 233 50" version="1.1" xmlns="http://www.w3.org/2000/svg" xmlns:xlink="http://www.w3.org/1999/xlink">
    <!-- Generator: Sketch 43.1 (39012) - http://www.bohemiancoding.com/sketch -->
    <title>publication-android-authority</title>
    <desc>Created with Sketch.</desc>
    <defs>
        <linearGradient x1="-106.163158%" y1="40.4267088%" x2="248.532083%" y2="62.1706284%" id="linearGradient-1">
            <stop stop-color="#6FC612" offset="0%"></stop>
            <stop stop-color="#00E1BE" offset="100%"></stop>
        </linearGradient>
        <linearGradient x1="-215.059911%" y1="29.4707519%" x2="143.833857%" y2="57.3063145%" id="linearGradient-2">
            <stop stop-color="#6FC612" offset="0%"></stop>
            <stop stop-color="#00E1BE" offset="100%"></stop>
        </linearGradient>
        <linearGradient x1="-157.336574%" y1="45.3041358%" x2="940.567804%" y2="68.8102652%" id="linearGradient-3">
            <stop stop-color="#6FC612" offset="0%"></stop>
            <stop stop-color="#00E1BE" offset="100%"></stop>
        </linearGradient>
        <linearGradient x1="-58.9010239%" y1="48.3072398%" x2="525.260271%" y2="57.3874649%" id="linearGradient-4">
            <stop stop-color="#6FC612" offset="0%"></stop>
            <stop stop-color="#00E1BE" offset="100%"></stop>
        </linearGradient>
    </defs>
    <g id="Website" stroke="none" stroke-width="1" fill="none" fill-rule="evenodd">
        <g id="AL-Website-Desktop-v4-17-04-13" transform="translate(-546.000000, -1968.000000)" fill-rule="nonzero">
            <g id="Group-16" transform="translate(42.000000, 1698.000000)">
                <g id="Group-3" transform="translate(18.000000, 0.000000)">
                    <g id="Group-6" transform="translate(0.000000, 87.000000)">
                        <g id="publication-android-authority" transform="translate(486.000000, 183.000000)">
                            <path d="M117.954208,20.0605774 C118.222748,19.7974548 118.591141,19.6514587 118.974053,19.6563721 C119.761887,19.6529846 120.403404,20.2657929 120.406929,21.025116 C120.406944,21.0292054 120.406944,21.0332947 120.406929,21.0373993 L120.406929,29.8103638 C120.410446,30.5696869 119.774628,31.1879883 118.986794,31.1913758 C118.982544,31.1913911 118.978302,31.1913911 118.974053,31.1913758 C118.591141,31.1963044 118.222748,31.050293 117.954208,30.7871705 C117.676972,30.5331727 117.522606,30.1789857 117.528481,29.8103639 L117.528481,21.0373994 C117.522606,20.6687622 117.676971,20.3145752 117.954208,20.0605774 Z M106.516663,19.9258423 L106.516663,25.0548859 L108.028969,25.0548859 C108.412453,25.0610352 108.78112,24.9122467 109.045639,24.6445618 C109.318275,24.384491 109.468658,24.0282288 109.461838,23.6585694 L109.461838,21.3191071 C109.461838,20.3902741 108.984215,19.9258423 108.028969,19.9258423 L106.516663,19.9258423 Z M95.4985046,19.9258423 L95.4985046,31.1025696 L97.0108032,31.1025696 C97.3927383,31.1083679 97.7591095,30.9568787 98.0179443,30.6861267 C98.2855987,30.4245911 98.4332351,30.0705109 98.4277877,29.703186 L98.4277877,21.3068542 C98.4346007,20.9371948 98.2842178,20.5809478 98.011589,20.3208618 C97.7523193,20.0525055 97.3880615,19.9013977 97.0076217,19.9044037 L95.4985046,19.9258423 Z M72.6551895,27.4433441 L74.5137939,27.4433441 L73.6083221,21.1292572 L72.6551895,27.4433441 Z M134.360733,19.9044037 L134.360733,31.081131 L135.879379,31.081131 C136.261322,31.0869446 136.627686,30.9354553 136.88652,30.6646881 C137.147552,30.4079285 137.293579,30.0626678 137.293198,29.703186 L137.293198,21.3068542 C137.299179,20.9367523 137.147629,20.580429 136.87381,20.3208618 C136.616806,20.0548553 136.2565,19.9039764 135.879379,19.9044037 L134.360733,19.9044037 L134.360733,19.9044037 Z M69.0587158,33.478775 L71.6702881,33.478775 L72.2802887,29.8042297 L74.8982163,29.8042297 L75.4859849,33.478775 L78.1229707,33.478775 L75.333481,17.4547119 L71.8831636,17.4547119 L69.0587158,33.478775 Z M104.00676,33.478775 L106.513496,33.478775 L106.513496,27.4433441 L108.184647,27.4433441 L109.703301,33.478775 L112.416542,33.478775 L110.55793,26.4848938 C111.422852,25.762558 111.913376,24.7094574 111.898666,23.6065063 L111.898666,21.2823638 C111.898666,20.1228484 111.611672,19.2195128 111.037674,18.5723876 C110.383194,17.8272704 109.356987,17.4547118 107.959068,17.4547118 L104.00676,17.4547118 L104.00676,33.478775 Z M126.173348,33.478775 L128.680084,33.478775 L128.680084,17.4547119 L126.173348,17.4547119 L126.173348,33.478775 Z M87.3047714,28.2211151 L83.9783554,17.4547119 L81.1634521,17.4547119 L81.1634521,33.4910278 L83.6701812,33.4910278 L83.6701812,23.211502 L87.1205062,33.4787749 L89.8115081,33.4787749 L89.8115081,17.4547118 L87.3047713,17.4547118 L87.3047713,28.2211151 L87.3047714,28.2211151 Z M92.9886017,33.478775 L96.9281922,33.478775 C97.9792481,33.4934997 98.9890595,33.0850982 99.7145005,32.3519134 C100.467529,31.6387786 100.884369,30.659317 100.86779,29.6419372 L100.86779,21.2670593 C100.882927,20.2547455 100.468659,19.2803344 99.7208634,18.5693207 C98.9919282,17.8387604 97.9796067,17.4347229 96.9281922,17.4547119 L92.9886017,17.4547119 L92.9886017,33.478775 Z M131.854004,33.478775 L135.79361,33.478775 C136.844666,33.4934997 137.854462,33.0850982 138.57991,32.3519134 C139.332947,31.6387786 139.749786,30.659317 139.7332,29.6419372 L139.7332,21.2670593 C139.748337,20.2547455 139.334061,19.2803344 138.586273,18.5693207 C137.857559,17.83844 136.845093,17.4343415 135.79361,17.4547119 L131.854004,17.4547119 L131.854004,33.478775 Z M116.229057,32.5601349 C116.963768,33.2947388 117.982307,33.701828 119.040779,33.6839447 C121.235863,33.6873169 123.018166,31.9750061 123.021675,29.8593597 C123.02169,29.8552703 123.02169,29.8511962 123.021675,29.8471069 L123.021675,21.089447 C123.109436,18.9754944 121.402519,17.1932373 119.20919,17.1086731 C117.015877,17.0240936 115.166695,18.66922 115.078941,20.7831726 C115.074707,20.8852234 115.074707,20.9873962 115.078941,21.089447 L115.078941,29.8348541 C115.061989,30.8523102 115.478882,31.8318939 116.232231,32.5448303 L116.229057,32.5601349 Z M143.50441,14.9590912 C144.783554,14.9590912 145.820511,15.9585114 145.820511,17.1913757 L145.820511,17.1913757 L145.820511,33.7268066 C145.820511,34.9596557 144.783554,35.9590911 143.50441,35.9590911 L143.50441,35.9590911 L65.3161011,35.9590911 C64.0369492,35.9590911 63,34.9596557 63,33.7268066 L63,17.1913757 C63,15.9585266 64.0369492,14.9590912 65.3161011,14.9590912 L143.50441,14.9590912 Z" id="Artwork_1" fill="url(#linearGradient-1)"></path>
                            <path d="M154.751328,27.2963562 L156.606751,27.2963562 L155.679031,20.9822693 L154.751328,27.2963562 Z M157.416916,17.310791 L160.203217,33.3287353 L157.566239,33.3287353 L156.97847,29.65419 L154.36055,29.65419 L153.750534,33.3287353 L151.12944,33.3287353 L153.953873,17.310791 L157.416916,17.310791 Z M166.884644,17.310791 L166.884644,29.6725616 C166.888168,30.4318847 166.25235,31.0501861 165.464523,31.0535736 C165.460266,31.0536041 165.456024,31.0536041 165.451782,31.0535736 C165.069336,31.0593109 164.701019,30.914444 164.431931,30.6524506 C164.154694,30.3984375 164.000336,30.0442505 164.00621,29.6756287 L164.00621,17.310791 L161.553482,17.310791 L161.553482,29.703186 C161.546417,31.8002166 163.304504,33.5057068 165.48027,33.5125122 C165.493012,33.512558 165.505768,33.5125427 165.518509,33.5124664 C166.571732,33.5291595 167.586731,33.1323242 168.330231,32.4131622 C169.097183,31.7079467 169.521439,30.7246093 169.499405,29.703186 L169.499405,17.310791 L166.884644,17.310791 L166.884644,17.310791 Z M171.126068,17.310791 L171.126068,19.7390594 L173.791657,19.7390594 L173.791657,33.3287353 L176.298401,33.3287353 L176.298401,19.7390594 L178.951263,19.7390594 L178.951263,17.310791 L171.126068,17.310791 Z M186.125153,17.310791 L186.125153,24.1117554 L183.10054,24.1117554 L183.10054,17.310791 L180.593811,17.310791 L180.593811,33.3287353 L183.10054,33.3287353 L183.10054,26.5400238 L186.125153,26.5400238 L186.125153,33.3287353 L188.619156,33.3287353 L188.619156,17.310791 L186.125153,17.310791 Z M193.353043,30.6371307 C193.621918,30.8994293 193.990372,31.0443573 194.372894,31.038269 C195.160736,31.0416565 195.802261,30.4288635 195.805771,29.6695251 C195.805786,29.6654357 195.805786,29.6613464 195.805771,29.657257 L195.805771,20.8904113 C195.80928,20.1310882 195.173462,19.5127868 194.385635,19.5093993 C194.381394,19.509384 194.377136,19.509384 194.372894,19.5093993 C193.991379,19.5020446 193.623184,19.6446532 193.353043,19.9044036 C193.075806,20.1584167 192.921417,20.5126037 192.927292,20.8812255 L192.927292,29.6603088 C192.921417,30.0289459 193.075806,30.3831329 193.353043,30.6371307 Z M191.640579,18.2233124 C193.193039,16.730011 195.707565,16.7324219 197.256943,18.2286988 C198.001755,18.9479829 198.419205,19.9232026 198.417328,20.9394074 L198.417328,29.6848145 C198.417328,31.7987671 196.639282,33.5124665 194.445953,33.5124665 C192.252625,33.5124665 190.474594,31.7987672 190.474594,29.6848145 L190.474594,20.9424744 C190.454254,19.9201813 190.87677,18.9359589 191.640579,18.2263642 L191.640579,18.2233124 L191.640579,18.2233124 Z M202.760407,24.9017792 L204.272705,24.9017792 C204.657501,24.9116211 205.028824,24.7649231 205.295731,24.4975891 C205.567551,24.2382507 205.71788,23.883255 205.711929,23.5146484 L205.711929,21.1721344 C205.711929,20.2432861 205.234299,19.7788696 204.279053,19.7788696 L202.766754,19.7788696 L202.760407,24.9017792 Z M204.205994,17.3077393 C205.603897,17.3077393 206.629044,17.6782532 207.281418,18.419281 C207.855423,19.0664062 208.14241,19.9697418 208.14241,21.1292572 L208.14241,23.4564667 C208.160736,24.5575257 207.674942,25.6104737 206.814392,26.3348542 L208.669815,33.3287354 L205.959747,33.3287354 L204.441086,27.2963562 L202.769928,27.2963562 L202.769928,33.3287354 L200.263199,33.3287354 L200.263199,17.310791 L204.205994,17.3077393 Z M210.436264,33.3256683 L212.942993,33.3256683 L212.942993,17.310791 L210.445801,17.310791 L210.436264,33.3256683 Z M214.585556,17.3077393 L214.585556,19.7359925 L217.251144,19.7359925 L217.251144,33.3256684 L219.754684,33.3256684 L219.754684,19.7390595 L222.407562,19.7390595 L222.407562,17.3107911 L214.585556,17.3077393 Z M230.220047,17.3077393 L228.377335,23.0614472 L226.521896,17.3077393 L223.764176,17.3077393 L227.125549,26.6165772 L227.125549,33.3287354 L229.632294,33.3287354 L229.632294,26.6165772 L233,17.2985535 L230.220047,17.3077393 Z" id="Shape" fill="url(#linearGradient-2)"></path>
                            <path d="M38.0732765,23.6668701 C37.5234337,23.9137115 36.9151611,24.0006103 36.3181915,23.9175873 C34.8509788,23.6668701 32.6470642,20.4074249 32.9751739,18.655426 C33.2073287,17.4172668 35.4205284,17.4172668 35.4205284,17.4172668 C34.2336616,15.5733795 32.5337257,14.1165924 30.5298157,13.2261199 L31.3965245,9.8831023 L31.1581822,9.7314223 L29.4061909,12.7803801 C27.836298,12.2496489 26.1842938,12.003311 24.5278569,12.0529631 C23.5899144,12.0716551 22.6563836,12.1867979 21.7420083,12.3965605 L18.6001893,8.4654082 L18.6001893,8.4654082 L18.3525582,8.706848 L20.1943131,12.8546751 C15.1147824,14.7335661 12.2886925,19.6211851 12.276311,24.570709 C22.1815549,22.6949155 35.6186381,25.8986356 38.2775775,27.393707 C38.417141,26.1487122 38.3480949,24.8891449 38.0732765,23.6668701 Z M24.8807316,22.9611206 C21.2343636,22.5370483 20.828867,20.2124023 20.8567257,19.0454559 C20.9186325,16.1481628 22.6303845,15.8479156 24.4845219,15.8448181 C26.8153496,15.8448181 30.0066967,16.4298401 30.8517361,18.1168365 C31.7401142,19.9028778 27.6511059,23.2861328 24.8807316,22.9611206 Z" id="Shape" fill="url(#linearGradient-3)"></path>
                            <path d="M38.0732765,23.6668701 C37.5234337,23.9137115 36.9151611,24.0006103 36.3181915,23.9175873 C34.8509788,23.6668701 32.6470642,20.4074249 32.9751739,18.655426 C33.2073287,17.4172668 35.4205284,17.4172668 35.4205284,17.4172668 C34.2336616,15.5733795 32.5337257,14.1165924 30.5298157,13.2261199 L31.3965245,9.8831023 L31.1581822,9.7314223 L29.4061909,12.7803801 C27.836298,12.2496489 26.1842938,12.003311 24.5278569,12.0529631 C23.5899144,12.0716551 22.6563836,12.1867979 21.7420083,12.3965605 L18.6001893,8.4654082 L18.6001893,8.4654082 L18.3525582,8.706848 L20.1943131,12.8546751 C15.1147824,14.7335661 12.2886925,19.6211851 12.276311,24.570709 C22.1815549,22.6949155 35.6186381,25.8986356 38.2775775,27.393707 C38.417141,26.1487122 38.3480949,24.8891449 38.0732765,23.6668701 Z M24.8807316,22.9611206 C21.2343636,22.5370483 20.828867,20.2124023 20.8567257,19.0454559 C20.9186325,16.1481628 22.6303845,15.8479156 24.4845219,15.8448181 C26.8153496,15.8448181 30.0066967,16.4298401 30.8517361,18.1168365 C31.7401142,19.9028778 27.6511059,23.2861328 24.8807316,22.9611206 Z" id="Shape" fill="url(#linearGradient-3)"></path>
                            <path d="M38.0732765,23.6668701 C37.5234337,23.9137115 36.9151611,24.0006103 36.3181915,23.9175873 C34.8509788,23.6668701 32.6470642,20.4074249 32.9751739,18.655426 C33.2073287,17.4172668 35.4205284,17.4172668 35.4205284,17.4172668 C34.2336616,15.5733795 32.5337257,14.1165924 30.5298157,13.2261199 L31.3965245,9.8831023 L31.1581822,9.7314223 L29.4061909,12.7803801 C27.836298,12.2496489 26.1842938,12.003311 24.5278569,12.0529631 C23.5899144,12.0716551 22.6563836,12.1867979 21.7420083,12.3965605 L18.6001893,8.4654082 L18.6001893,8.4654082 L18.3525582,8.706848 L20.1943131,12.8546751 C15.1147824,14.7335661 12.2886925,19.6211851 12.276311,24.570709 C22.1815549,22.6949155 35.6186381,25.8986356 38.2775775,27.393707 C38.417141,26.1487122 38.3480949,24.8891449 38.0732765,23.6668701 Z M24.8807316,22.9611206 C21.2343636,22.5370483 20.828867,20.2124023 20.8567257,19.0454559 C20.9186325,16.1481628 22.6303845,15.8479156 24.4845219,15.8448181 C26.8153496,15.8448181 30.0066967,16.4298401 30.8517361,18.1168365 C31.7401142,19.9028778 27.6511059,23.2861328 24.8807316,22.9611206 Z" id="Shape" fill="url(#linearGradient-3)"></path>
                            <path d="M24.5,49.9590912 C10.9690247,49.9590912 0,38.9900665 0,25.4590912 C0,11.9281159 10.9690247,0.9590912 24.5,0.9590912 C38.0309753,0.9590912 49,11.9281159 49,25.4590912 L49,25.4621887 C48.984642,38.9862976 38.0241089,49.9454498 24.5,49.9590912 Z M14.0437784,45.0993347 C14.4523697,45.319107 14.8671512,45.5233917 15.2819338,45.7184143 L15.3717003,45.7617493 L15.5729008,45.8515168 L15.7710057,45.9381867 L15.9443475,46.0124665 L16.0403062,45.990799 C18.4269887,45.4809723 20.8429013,45.1191559 23.2742292,44.9074097 L23.7694913,44.8671723 C25.406952,44.7340699 27.0753652,44.6628724 28.7221128,44.6566926 L29.2111837,44.6566926 C30.3410017,44.6566926 31.4708196,44.6876527 32.5727769,44.7433625 C32.9287454,44.7433625 33.2847177,44.7805024 33.6437799,44.8021699 C34.1638071,44.8362275 34.6869279,44.8733674 35.210045,44.9197999 L35.2843362,44.9197999 L35.3555299,44.8919374 C35.3824388,44.8807832 35.4083291,44.867325 35.4329148,44.8517 C35.5938721,44.7619325 35.7424546,44.66597 35.9127007,44.5731203 C36.0829468,44.4802553 36.2624779,44.3626406 36.4327279,44.2635805 C36.602974,44.1645204 36.8134614,44.0159456 37.0022775,43.8890383 L37.1353799,43.7992708 L37.8504106,43.3225862 L36.9960824,43.2328187 C35.757927,43.1028138 34.5012017,43.0006715 33.2506639,42.9232789 C32.000126,42.8459016 30.7062551,42.811844 29.4340497,42.8087464 L28.9418813,42.8087464 C27.25799,42.8087464 25.5771943,42.8768464 23.9397336,43.003769 C23.4630433,43.0378114 22.9832593,43.0780488 22.5096627,43.1244813 C22.3920384,43.1244813 22.2713185,43.1461488 22.1536923,43.1616212 C19.5699864,43.4235841 17.005827,43.8516389 14.47713,44.4431153 C14.6071358,43.7249909 14.4523659,42.5858765 13.4185067,40.7626954 L15.6719485,40.1436158 L15.7895737,40.0817109 C16.3633766,39.7584229 16.8409005,39.2883759 17.1732121,38.7197419 C17.6560936,37.9397126 18.1761189,36.5529786 17.909916,34.4604951 C17.7056199,32.8075563 17.2444058,31.5074922 16.5417538,30.5943452 C15.9629145,29.7619325 15.0260477,29.2505036 14.0128222,29.2138063 C13.9093829,29.2143709 13.8060494,29.2205659 13.7032834,29.2323762 C13.5381967,29.2530061 13.3741418,29.2757112 13.2111169,29.3004762 L13.2111169,29.1302339 C15.5295631,28.5544893 18.6651918,28.2387544 22.0732137,28.2387544 C27.7903978,28.2387544 33.5478212,29.1085664 37.9030305,30.6253053 C38.5709268,34.1981508 39.0257188,37.8075563 39.2650033,41.4344026 L39.3083383,42.084427 L39.7850267,41.6387025 C40.1348077,41.3105775 40.4783975,40.9638978 40.8034097,40.6110231 L40.8931733,40.5119783 L40.8931733,40.3788759 C40.7074471,37.96756 40.4381486,35.5995943 40.0945626,33.3368685 C41.270237,33.8124392 42.3801919,34.4365999 43.3973389,35.194092 C43.5799675,35.3271944 43.7533074,35.4571993 43.9142685,35.5872042 L44.2238083,35.8224642 L44.3940544,35.4819643 C45.9581146,32.3748018 46.7622642,28.9407351 46.7403641,25.4621889 C46.7493286,13.1740572 36.7950897,3.2052767 24.5069523,3.1963121 C12.2188149,3.1873475 2.2500396,13.1415863 2.2410748,25.429718 C2.2386496,28.754013 2.9811559,32.0365906 4.4140239,35.0362243 L4.5811749,35.3890991 L4.8907137,35.1445617 C6.5807958,33.7856902 10.0012007,31.4300994 13.9044857,30.9657897 L14.0128241,30.9657897 C14.8238154,30.9657897 15.88863,31.937744 16.2291222,34.680252 C16.5758057,37.4661102 15.2695523,38.3575744 15.0683508,38.4783019 L12.0720148,39.2985686 C11.5457983,38.8837889 10.5243206,38.1408995 10.0909662,38.1408995 L10.0476303,38.1408995 L9.4626026,38.1904295 L9.8340492,38.6454466 C13.1368294,42.6942137 12.8210983,44.0716704 12.805623,44.1273802 L12.7468109,44.3502501 L12.9449158,44.4709776 C13.2823134,44.6752775 13.5918522,44.8547972 13.8890086,45.0157621 L13.9230586,45.034332 L14.0066338,45.0745694 L14.0437784,45.0993347 Z" id="Shape" fill="url(#linearGradient-4)"></path>
                        </g>
                    </g>
                </g>
            </g>
        </g>
    </g>
</svg>