<?xml version="1.0" encoding="UTF-8"?>
<svg width="24px" height="24px" viewBox="0 0 24 24" version="1.1" xmlns="http://www.w3.org/2000/svg" xmlns:xlink="http://www.w3.org/1999/xlink">
    <!-- Generator: Sketch 43.1 (39012) - http://www.bohemiancoding.com/sketch -->
    <title>twitter</title>
    <desc>Created with Sketch.</desc>
    <defs></defs>
    <g id="Symbols" stroke="none" stroke-width="1" fill="none" fill-rule="evenodd">
        <g id="social-buttons" transform="translate(-101.000000, 0.000000)" fill-rule="nonzero" fill="#FFFFFF">
            <path d="M101,0 L125,0 L125,24 L101,24 L101,0 Z M110.2172,18.0683814 C115.8776,18.0683814 118.9736,13.3787814 118.9736,9.31198142 C118.9736,9.17878142 118.9736,9.04618142 118.9646,8.91418142 C119.566899,8.47852793 120.086813,7.93910906 120.5,7.32118142 C119.938327,7.57006248 119.342498,7.73327861 118.7324,7.80538142 C119.374846,7.42077065 119.855674,6.81584461 120.0854,6.10318142 C119.481294,6.46165461 118.820388,6.71428863 118.1312,6.85018142 C117.17725,5.83581799 115.661432,5.58754897 114.43373,6.24458938 C113.206028,6.90162978 112.571765,8.30057686 112.8866,9.65698142 C110.412137,9.53293114 108.106685,8.36417538 106.544,6.44158142 C105.727174,7.84776825 106.144393,9.64669711 107.4968,10.5497814 C107.007045,10.5352659 106.527968,10.4031493 106.1,10.1645814 L106.1,10.2035814 C106.100401,11.6685372 107.133051,12.9303025 108.569,13.2203814 C108.115922,13.3439454 107.640548,13.362008 107.1794,13.2731814 C107.582569,14.5268351 108.737945,15.3856517 110.0546,15.4103814 C108.964841,16.2668406 107.618636,16.7317781 106.2326,16.7303814 C105.987742,16.7299113 105.743122,16.7150859 105.5,16.6859814 C106.907382,17.5891474 108.544948,18.0682116 110.2172,18.0659814 L110.2172,18.0683814 Z" id="twitter"></path>
        </g>
    </g>
</svg>